<?xml version="1.0" standalone="no"?>
<!DOCTYPE svg PUBLIC "-//W3C//DTD SVG 1.1//EN" "http://www.w3.org/Graphics/SVG/1.1/DTD/svg11.dtd" >
<!--
2013-9-30: Created.
-->
<svg>
<metadata>
Created by iconfont
</metadata>
<defs>

<font id="iconfont" horiz-adv-x="1024" >
  <font-face
    font-family="iconfont"
    font-weight="500"
    font-stretch="normal"
    units-per-em="1024"
    ascent="896"
    descent="-128"
  />
    <missing-glyph />
    
    <glyph glyph-name="facebook" unicode="&#58883;" d="M832.512 832.512q26.624 0 50.176-10.24t40.96-27.648 27.648-40.448 10.24-49.664l0-641.024q0-26.624-10.24-49.664t-27.648-40.448-40.96-27.648-50.176-10.24l-191.488 0 0 384 63.488 0q26.624 0 45.568 18.944t18.944 45.568-18.944 45.568-45.568 18.944l-63.488 0q2.048 38.912 16.384 52.224t38.912 13.312l66.56 0q27.648 0 41.984 19.968t14.336 44.032-13.824 44.032-42.496 19.968l-110.592 0q-34.816 0-60.928-11.776t-44.032-32.256-26.624-47.104-8.704-57.344l0-45.056-63.488 0q-26.624 0-45.568-18.944t-18.944-45.568 18.944-45.568 45.568-18.944l63.488 0 0-384-320.512 0q-26.624 0-49.664 10.24t-40.448 27.648-27.648 40.448-10.24 49.664l0 641.024q0 26.624 10.24 49.664t27.648 40.448 40.448 27.648 49.664 10.24l641.024 0z"  horiz-adv-x="1024" />

    
    <glyph glyph-name="weiruan" unicode="&#58880;" d="M454.656 32.768l-1.024 343.04 455.68-2.048 0-409.6zM453.632 752.64l455.68 68.608 0-378.88-455.68 0 0 310.272zM65.536 376.832l325.632-1.024 0-336.896-325.632 52.224 0 285.696zM65.536 442.368l0 251.904 325.632 52.224 0-304.128-325.632 0z"  horiz-adv-x="1024" />

    
    <glyph glyph-name="msnui-menu" unicode="&#58983;" d="M133.213 662.26v0zM886.905 586.899h-753.691c-41.623 0-75.364 33.741-75.364 75.361s33.743 75.361 75.364 75.361h753.691c41.623 0 75.364-33.741 75.364-75.361s-33.743-75.361-75.364-75.361zM133.213 379.637v0zM886.905 304.277h-753.691c-41.623 0-75.364 33.741-75.364 75.361s33.743 75.361 75.364 75.361h753.691c41.623 0 75.364-33.741 75.364-75.361s-33.743-75.361-75.364-75.361zM133.213 97.017v0zM886.905 21.654h-753.691c-41.623 0-75.364 33.741-75.364 75.361s33.743 75.361 75.364 75.361h753.691c41.623 0 75.364-33.741 75.364-75.361s-33.743-75.361-75.364-75.361z"  horiz-adv-x="1024" />

    
    <glyph glyph-name="guanbi" unicode="&#58977;" d="M525.269211 385.162476 918.101111 779.772882c7.17747 7.209192 7.14984 18.871813-0.059352 26.049283-7.210215 7.176446-18.87079 7.151887-26.049283-0.059352L499.278257 411.27111 106.563014 805.763836c-7.17747 7.209192-18.84009 7.235798-26.049283 0.059352-7.209192-7.17747-7.235798-18.84009-0.059352-26.049283L473.287303 385.162476 80.45438-9.446907c-7.176446-7.209192-7.150864-18.871813 0.059352-26.049283 3.593851-3.577478 8.29492-5.365194 12.994965-5.365194 4.727675 0 9.455349 1.809205 13.054317 5.424546l392.715243 394.491703 392.715243-394.491703c3.599991-3.615341 8.326643-5.424546 13.054317-5.424546 4.700045 0 9.402137 1.787716 12.994965 5.365194 7.209192 7.17747 7.235798 18.84009 0.059352 26.049283L525.269211 385.162476z"  horiz-adv-x="1024" />

    
    <glyph glyph-name="xiaosanjiaodown" unicode="&#58894;" d="M735.136 406.72 512 176 288.864 406.72Z"  horiz-adv-x="1024" />

    
    <glyph glyph-name="twitter" unicode="&#58961;" d="M716.396715 537.015999c21.115923 2.552126 42.231847 8.528234 63.304791 17.865903-14.921851-22.970154-33.113165-42.406832-54.579059-58.592466l0-14.638395c0-30.125111-4.189416-60.272735-12.739139-90.396823-8.463766-30.040177-21.509896-59.095933-39.09132-86.865393-17.538445-27.76946-38.567387-52.200896-62.998823-73.4038-24.343431-21.289885-53.661154-38.283931-87.780229-50.957579-34.117029-12.739139-70.851675-19.130709-110.116957-19.130709-66.227354 0-122.463146 15.313777-168.797427 45.830815 8.769734-1.264806 17.408485-1.855254 26.134217-1.855254 47.468105 0 93.01444 17.758456 136.381134 53.379745-23.559579 0.50142-44.763506 7.962346-63.566758 22.686698-18.759249 14.615882-48.470945 38.763862-55.450916 61.254086 24.605398-5.89015 52.396347-7.372921 66.315358-3.751441-21.858844 4.426823-110.902856 63.523779-109.50809 111.12082 15.705704-8.834202 52.31039-25.217335 71.027683-13.045107-59.641355 53.488215-52.486398 127.787408-26.352181 170.870646 15.181771-32.983205 23.995507-61.930491 92.403526-104.425328 37.434587-23.166629 85.905532-27.092032 130.97296-29.644157-1.658779 7.263427 0 34.530444 0 44.654013 0 31.019481 16.054651 47.118134 24.823362 56.627718 20.812001 22.578228 47.338145 33.07121 77.920674 33.07121 31.41243 0 58.3305-11.868305 80.58127-35.622312 24.431435 5.102205 47.642067 14.244422 69.498864 27.375487C756.535901 572.245362 740.436224 551.434383 716.396715 537.015999zM958.70846 652.041756l0-536.105001c0-98.730629-79.971379-178.722474-178.700985-178.722474L243.903497-62.785719c-98.642624 0-178.61298 79.991846-178.61298 178.722474L65.290517 652.041756c0 98.642624 79.969333 178.744987 178.61298 178.744987l536.105001 0C878.73708 830.786743 958.70846 750.68438 958.70846 652.041756zM869.401458 607.387743c0 74.015737-60.075237 133.961014-134.069485 133.961014L288.578999 741.348758c-74.03825 0-134.027529-59.945277-134.027529-133.961014l0-446.775486c0-74.015737 59.989279-133.983527 134.027529-133.983527l446.752973 0c73.994248 0 134.069485 59.96779 134.069485 133.983527L869.401458 607.387743z"  horiz-adv-x="1024" />

    
    <glyph glyph-name="close-o" unicode="&#58899;" d="M512 814.182c-257.071 0-465.455-208.384-465.455-465.455s208.384-465.455 465.455-465.455c257.071 0 465.455 208.384 465.455 465.455 0 257.071-208.384 465.455-465.455 465.455zM512-70.182c-231.377 0-418.909 187.532-418.909 418.909 0 231.377 187.532 418.909 418.909 418.909 231.377 0 418.909-187.532 418.909-418.909 0-231.377-187.532-418.909-418.909-418.909zM725.923 562.65c-9.076 9.076-23.831 9.076-32.908 0l-181.015-181.015-181.015 181.015c-9.076 9.076-23.831 9.076-32.908 0-9.076-9.076-9.076-23.831 0-32.908l181.015-181.015-181.015-181.015c-9.076-9.076-9.076-23.831 0-32.908 9.076-9.076 23.831-9.076 32.908 0l181.015 181.015 181.015-181.015c9.076-9.076 23.831-9.076 32.908 0 9.076 9.076 9.076 23.831 0 32.908l-181.015 181.015 181.015 181.015c9.076 9.076 9.076 23.831 0 32.908z"  horiz-adv-x="1024" />

    
    <glyph glyph-name="6" unicode="&#59083;" d="M506.311111 708.266667c-182.226489 0-329.955556-147.729067-329.955556-329.955556s147.729067-329.955556 329.955556-329.955556 329.955556 147.729067 329.955556 329.955556S688.5376 708.266667 506.311111 708.266667zM506.311111 102.559289c-152.291556 0-275.751822 123.460267-275.751822 275.751822S354.019556 654.062933 506.311111 654.062933 782.062933 530.602667 782.062933 378.311111 658.602667 102.559289 506.311111 102.559289zM630.852267 386.889956c10.569956 14.916267 16.873244 33.5872 16.873244 53.873778 0 48.810667-36.408889 88.382578-81.3056 88.382578-3.595378 0-7.964444 0-12.959289 0l0 68.346311c0 3.8912-3.185778 7.0656-7.0656 7.0656L522.808889 604.558222c-3.8912 0-7.0656-3.185778-7.0656-7.0656l0-68.346311-37.705956 0 0 68.346311c0 3.8912-3.185778 7.0656-7.0656 7.0656l-23.563378 0c-3.8912 0-7.0656-3.185778-7.0656-7.0656l0-68.346311-77.778489 0c-3.902578 0-7.0656-3.163022-7.0656-7.0656l0-23.802311c0-3.640889 2.719289-6.792533 6.3488-7.122489 26.555733-2.434844 40.789333-20.252444 40.789333-42.143289l0-146.1248c0-19.694933-10.160356-35.328-32.369778-37.467022-3.151644-0.3072-5.768533-2.548622-6.360178-5.666133l-4.5056-24.029867c-0.807822-4.289422 2.491733-8.260267 6.8608-8.260267L440.32 227.464533l0-68.346311c0-3.8912 3.185778-7.0656 7.0656-7.0656l23.563378 0c3.8912 0 7.0656 3.185778 7.0656 7.0656l0 68.346311 37.705956 0 0-68.346311c0-3.8912 3.185778-7.0656 7.0656-7.0656l23.563378 0c3.8912 0 7.0656 3.185778 7.0656 7.0656l0 68.346311c13.357511 0 24.450844 0 31.812267 0 44.908089 0 81.3056 39.037156 81.3056 87.199289C666.578489 344.723911 652.413156 371.211378 630.852267 386.889956zM478.025956 472.587378c0 0 36.260978 0 57.742222 0 21.481244 0 38.889244-17.408 38.889244-38.889244 0-21.481244-17.408-38.889244-38.889244-38.889244-21.481244 0-57.742222 0-57.742222 0L478.025956 472.587378zM554.621156 281.679644c-21.481244 0-76.5952 0-76.5952 0l0 77.778489c0 0 55.113956 0 76.5952 0 21.481244 0 38.889244-17.408 38.889244-38.889244C593.5104 299.087644 576.1024 281.679644 554.621156 281.679644z"  horiz-adv-x="1024" />

    
    <glyph glyph-name="iconset0453" unicode="&#59212;" d="M384 682.666667l42.666667 0 0-106.666667c0-12.8 8.533333-21.333333 21.333333-21.333333l128 0c12.8 0 21.333333 8.533333 21.333333 21.333333l0 106.666667 42.666667 0c12.8 0 21.333333 8.533333 21.333333 21.333333 0 6.4-2.133333 10.666667-6.4 14.933333l-128 128C522.666667 851.2 518.4 853.333333 512 853.333333c-6.4 0-10.666667-2.133333-14.933333-6.4l-128-128C364.8 714.666667 362.666667 710.4 362.666667 704 362.666667 691.2 371.2 682.666667 384 682.666667zM512 802.133333 588.8 725.333333 576 725.333333c-12.8 0-21.333333-8.533333-21.333333-21.333333l0-106.666667-85.333333 0L469.333333 704c0 12.8-8.533333 21.333333-21.333333 21.333333l-12.8 0L512 802.133333zM753.066667 168.533333l89.6 89.6c8.533333 8.533333 8.533333 21.333333 0 29.866667-8.533333 8.533333-21.333333 8.533333-29.866667 0l-89.6-89.6c-8.533333-8.533333-8.533333-21.333333 0-29.866667C731.733333 160 744.533333 160 753.066667 168.533333zM270.933333 168.533333c8.533333-8.533333 21.333333-8.533333 29.866667 0 8.533333 8.533333 8.533333 21.333333 0 29.866667l-89.6 89.6c-8.533333 8.533333-21.333333 8.533333-29.866667 0-8.533333-8.533333-8.533333-21.333333 0-29.866667L270.933333 168.533333zM960-42.666667l-192 0c0 140.8-115.2 256-256 256-140.8 0-256-115.2-256-256L64-42.666667c-12.8 0-21.333333-8.533333-21.333333-21.333333 0-12.8 8.533333-21.333333 21.333333-21.333333l896 0c12.8 0 21.333333 8.533333 21.333333 21.333333C981.333333-51.2 972.8-42.666667 960-42.666667zM298.666667-42.666667c0 117.333333 96 213.333333 213.333333 213.333333s213.333333-96 213.333333-213.333333L298.666667-42.666667zM490.666667 405.333333l0-128c0-12.8 8.533333-21.333333 21.333333-21.333333s21.333333 8.533333 21.333333 21.333333l0 128c0 12.8-8.533333 21.333333-21.333333 21.333333S490.666667 418.133333 490.666667 405.333333z"  horiz-adv-x="1024" />

    
    <glyph glyph-name="jiahaocu" unicode="&#58898;" d="M984.293767 460.389314 590.464452 460.389314 590.464452 854.21682l-157.531364 0 0-393.827505L39.105583 460.389314l0-157.531364 393.827505 0 0-393.831124 157.531364 0L590.464452 302.857951l393.829314 0L984.293767 460.389314z"  horiz-adv-x="1024" />

    
    <glyph glyph-name="postinstagram" unicode="&#59184;" d="M853.333333 810.666667 170.666667 810.666667C123.733333 810.666667 85.333333 772.266667 85.333333 725.333333l0-682.666667c0-46.933333 38.4-85.333333 85.333333-85.333333l682.666667 0c46.933333 0 85.333333 38.4 85.333333 85.333333L938.666667 725.333333C938.666667 772.266667 900.266667 810.666667 853.333333 810.666667zM512 554.666667c93.866667 0 170.666667-76.8 170.666667-170.666667s-76.8-170.666667-170.666667-170.666667c-93.866667 0-170.666667 76.8-170.666667 170.666667S418.133333 554.666667 512 554.666667zM192 42.666667C179.2 42.666667 170.666667 51.2 170.666667 64L170.666667 426.666667l89.6 0C256 413.866667 256 396.8 256 384c0-140.8 115.2-256 256-256 140.8 0 256 115.2 256 256 0 12.8 0 29.866667-4.266667 42.666667L853.333333 426.666667l0-362.666667c0-12.8-8.533333-21.333333-21.333333-21.333333L192 42.666667zM853.333333 618.666667C853.333333 605.866667 844.8 597.333333 832 597.333333l-85.333333 0C733.866667 597.333333 725.333333 605.866667 725.333333 618.666667l0 85.333333C725.333333 716.8 733.866667 725.333333 746.666667 725.333333l85.333333 0C844.8 725.333333 853.333333 716.8 853.333333 704L853.333333 618.666667z"  horiz-adv-x="1024" />

    
    <glyph glyph-name="fangdajing1" unicode="&#58897;" d="M970.200188-22.979108 682.03307 265.165498c126.530788 136.062885 123.95615 349.507162-8.481162 481.951637-65.645093 65.6103-152.887063 101.756545-245.657956 101.756545-92.78522 0-180.026166-36.146245-245.657956-101.756545-135.445832-135.454018-135.445832-355.86087 0-491.314889 65.632813-65.623603 152.87376-101.762685 245.657956-101.762685 87.409792 0 169.892365 32.101115 234.039337 90.699722l287.99725-287.983947c2.785439-2.806929 6.466272-4.199649 10.119475-4.199649 3.667529 0 7.336082 1.391696 10.148128 4.199649C975.783347-37.648203 975.783347-28.57864 970.200188-22.979108zM653.284305 276.061662c-60.22771-60.191894-140.275837-93.352131-225.390353-93.352131-85.127819 0-165.175947 33.158191-225.390353 93.352131-124.264165 124.277468-124.264165 326.509379 0 450.780707 60.214407 60.207243 140.260487 93.358271 225.390353 93.358271 85.114516 0 165.16162-33.151028 225.390353-93.358271C777.547447 602.572064 777.547447 400.340153 653.284305 276.061662zM539.293111 511.529535l-100.32801 0 0 100.330056c0 7.90811-6.40999 14.332427-14.332427 14.332427s-14.332427-6.424316-14.332427-14.332427l0-100.330056-100.330056 0c-7.921413 0-14.332427-6.423293-14.332427-14.332427 0-7.91425 6.411013-14.332427 14.332427-14.332427l100.330056 0 0-100.32801c0-7.915273 6.40999-14.341636 14.332427-14.341636s14.332427 6.424316 14.332427 14.341636l0 100.32801 100.32801 0c7.922437 0 14.33345 6.417153 14.33345 14.332427C553.626561 505.106242 547.216571 511.529535 539.293111 511.529535z"  horiz-adv-x="1024" />

    
    <glyph glyph-name="exchange" unicode="&#58928;" d="M727.504752-97.404915l0 103.786594c-38.576517 0.758978-55.962465 6.386849-69.135113 21.563976-11.914982 13.727285-1.087382 35.595339 8.464308 54.888463 3.108891 6.283462 6.319952 12.796807 7.094742 16.088145-0.82101 3.97612-15.689195 15.801095-30.626709 23.710765l-10.8276 5.727608 36.579335 41.808255c36.305665 160.347485 140.103206 172.868189 171.181166 172.868189 62.006314 0 116.02025-39.128722 131.351849-95.143489 29.783805-108.830636-69.146059-200.260728-90.105529-218.139282l0-72.038447-1.024134-2.049484c-16.528449-33.07271-121.155514-48.767986-141.964162-51.581313L727.504752-97.404915zM662.913777 133.723351c14.733174-9.158821 33.382869-24.051332 29.890841-39.163995-1.262531-5.500158-4.666985-12.368666-8.6054-20.314825-3.62339-7.331922-14.649249-29.617171-11.194926-33.601805 8.617563-9.920232 20.912034-14.966706 64.18716-14.966706l9.692782 0 0-100.768927c45.162841 7.106905 103.899711 22.037121 115.216268 37.750642l0 76.302833 3.648933 2.902118c1.170091 0.935343 116.298785 94.371132 87.143812 200.906589-13.021825 47.623438-59.358405 80.884676-112.655934 80.884676-73.612353 0-130.738828-59.849795-152.797843-160.085978l-0.527879-2.42654L662.913777 133.723351zM313.072349-44.534312l-10.993018 1.492413c-20.806215 2.813327-125.438145 18.50982-141.967811 51.554555l-1.020485 2.059214 0 72.037231c-20.958253 17.877338-119.885686 109.311079-90.106746 218.153878 15.332815 56.014767 69.349183 95.142273 131.356714 95.142273 31.076744 0 134.875502-12.517056 171.177517-172.870622l36.578118-41.816769-10.822735-5.727608c-14.941163-7.893858-29.805699-19.721265-30.57684-24.314055 0.71884-2.69048 3.938415-9.198959 7.057036-15.479989 9.537094-19.29434 20.364694-41.166043 8.449712-54.893328-13.155619-15.168613-30.559812-20.794051-69.131464-21.550597L313.072349-44.534312zM178.470518 15.517391c11.332369-15.709872 70.059509-30.647386 115.219917-37.742128l0 100.772576 9.689133 0c43.281208 0 55.57203 5.033095 64.190809 14.949678 3.457972 3.9895-7.570319 26.274748-11.193709 33.590859-3.938415 7.961971-7.344085 14.837777-8.606616 20.3428-3.493245 15.113879 15.15645 29.990578 29.895706 39.151832l-24.001463 27.433893-0.530312 2.420459c-22.056582 100.241048-79.179408 160.087194-152.792978 160.087194-53.302393 0-99.635325-33.258806-112.658366-80.881027-29.209707-106.749528 85.968856-199.987058 87.129216-200.909021l3.657447-2.914281L178.469301 15.517391zM304.341669 369.434677l0 111.704779-10.727862 0c-45.739372 0-82.952405 37.214249-82.952405 82.942674L210.661402 792.293682c0 45.729642 37.211816 82.939025 82.952405 82.939025l322.951226 0c45.738156 0 82.954837-37.209384 82.954837-82.939025l0-228.211553c0-45.728425-37.216682-82.942674-82.954837-82.942674L432.868028 481.139455 304.341669 369.434677zM293.612591 855.853225c-35.054081 0-63.571707-28.517626-63.571707-63.558327l0-228.211553c0-35.043134 28.517626-63.559543 63.571707-63.559543l30.107344 0 0-88.568112 101.906178 88.568112 190.936488 0c35.052864 0 63.572923 28.517626 63.572923 63.559543L680.135524 792.293682c0 35.040701-28.518842 63.558327-63.572923 63.558327L293.612591 855.852009zM682.278663 250.983022l-128.515412 111.71086-121.24917 0c-29.248629 0-56.693468 15.77312-71.59571 41.175774-2.712373 4.613467-1.172524 10.560011 3.445809 13.257789 4.618333 2.739132 10.549065 1.165226 13.262654-3.443376 11.444269-19.493815 32.475502-31.609488 54.887247-31.609488l128.491086 0 101.894015-88.56568 0 88.56568 92.562477 0c35.056513 0 63.572923 28.51641 63.572923 63.572923L819.034582 673.845676c0 35.041918-28.515193 63.558327-63.572923 63.558327l-36.564739 0c-5.350552 0-9.691565 4.341014-9.691565 9.691565 0 5.349335 4.339797 9.692782 9.691565 9.692782l36.564739 0c45.743021 0 82.95727-37.214249 82.95727-82.941458l0-228.198173c0-45.743021-37.214249-82.953621-82.95727-82.953621l-73.182995 0L682.278663 250.983022zM343.64554 632.964249c-27.015482 0-49.000302 21.978738-49.000302 48.996653 0 27.014266 21.983604 48.98449 49.000302 48.98449 27.014266 0 48.991788-21.970224 48.991788-48.98449C392.638544 654.942988 370.659806 632.964249 343.64554 632.964249zM343.64554 711.564694c-16.327758 0-29.615955-13.276034-29.615955-29.603791 0-16.326541 13.288197-29.613522 29.615955-29.613522s29.614738 13.28698 29.614738 29.613522C373.260279 698.28866 359.974514 711.564694 343.64554 711.564694zM455.087596 632.964249c-27.013049 0-48.991788 21.978738-48.991788 48.996653 0 27.014266 21.978738 48.98449 48.991788 48.98449 27.016698 0 49.000302-21.970224 49.000302-48.98449C504.086681 654.942988 482.104294 632.964249 455.087596 632.964249zM455.087596 711.564694c-16.325325 0-29.613522-13.276034-29.613522-29.603791 0-16.326541 13.288197-29.613522 29.613522-29.613522 16.328974 0 29.615955 13.28698 29.615955 29.613522C484.702334 698.28866 471.41657 711.564694 455.087596 711.564694zM566.532084 632.964249c-27.014266 0-48.99422 21.978738-48.99422 48.996653 0 27.014266 21.979955 48.98449 48.99422 48.98449 27.016698 0 48.996653-21.970224 48.996653-48.98449C615.529953 654.942988 593.548782 632.964249 566.532084 632.964249zM566.532084 711.564694c-16.328974 0-29.612306-13.276034-29.612306-29.603791 0-16.326541 13.283332-29.613522 29.612306-29.613522 16.326541 0 29.618387 13.28698 29.618387 29.613522C596.150471 698.28866 582.858625 711.564694 566.532084 711.564694z"  horiz-adv-x="1035" />

    
    <glyph glyph-name="instagram" unicode="&#59213;" d="M658.272 384q0 60.576-42.848 103.424t-103.424 42.848-103.424-42.848-42.848-103.424 42.848-103.424 103.424-42.848 103.424 42.848 42.848 103.424zM737.12 384q0-93.728-65.728-159.424t-159.424-65.728-159.424 65.728-65.728 159.424 65.728 159.424 159.424 65.728 159.424-65.728 65.728-159.424zM798.848 618.272q0-21.728-15.424-37.152t-37.152-15.424-37.152 15.424-15.424 37.152 15.424 37.152 37.152 15.424 37.152-15.424 15.424-37.152zM511.968 744q-4 0-43.712 0.288t-60.288 0-55.136-1.728-58.848-5.728-40.864-10.56q-28.576-11.424-50.272-33.152t-33.152-50.272q-6.272-16.576-10.56-40.864t-5.728-58.848-1.728-55.136 0-60.288 0.288-43.712-0.288-43.712 0-60.288 1.728-55.136 5.728-58.848 10.56-40.864q11.424-28.576 33.152-50.272t50.272-33.152q16.576-6.272 40.864-10.56t58.848-5.728 55.136-1.728 60.288 0 43.712 0.288 43.712-0.288 60.288 0 55.136 1.728 58.848 5.728 40.864 10.56q28.576 11.424 50.272 33.152t33.152 50.272q6.272 16.576 10.56 40.864t5.728 58.848 1.728 55.136 0 60.288-0.288 43.712 0.288 43.712 0 60.288-1.728 55.136-5.728 58.848-10.56 40.864q-11.424 28.576-33.152 50.272t-50.272 33.152q-16.576 6.272-40.864 10.56t-58.848 5.728-55.136 1.728-60.288 0-43.712-0.288zM950.848 384q0-130.848-2.848-181.152-5.728-118.848-70.848-184t-184-70.848q-50.272-2.848-181.152-2.848t-181.152 2.848q-118.848 5.728-184 70.848t-70.848 184q-2.848 50.272-2.848 181.152t2.848 181.152q5.728 118.848 70.848 184t184 70.848q50.272 2.848 181.152 2.848t181.152-2.848q118.848-5.728 184-70.848t70.848-184q2.848-50.272 2.848-181.152z"  horiz-adv-x="1024" />

    
    <glyph glyph-name="twitterlogo" unicode="&#58890;" d="M933.799652 700.786946c0 58.295708-47.258327 105.554034-105.554034 105.554034l-633.119545 0c-58.295708 0-105.554034-47.258327-105.554034-105.554034l0-633.119545c0-58.295708 47.258327-105.554034 105.554034-105.554034l633.119545 0c58.295708 0 105.554034 47.258327 105.554034 105.554034L933.799652 700.786946zM794.009885 495.777783c0.274246-5.666046 0.454348-11.370978 0.454348-17.117866 0-174.804235-132.921335-376.370996-376.24206-376.370996-74.730005 0-143.974066 21.917172-202.532763 59.422368 10.352789-1.178849 21.366633-1.849114 32.073486-1.849114 61.97654 0 120.06247 21.173229 165.318186 56.629765-57.889455 1.102101-104.684224 39.315424-121.530914 91.889827 8.107655-1.532913 20.445658-2.399653 28.991288-2.399653 12.08013 0 19.148106 1.610684 30.245861 4.641717-60.488653 12.159948-102.601796 65.638953-102.601796 129.7102 0 0.586354 0 1.098008 0 1.64957 0-9.914814 34.714639-15.858176 56.399521-16.563234-35.498492 23.724331-68.75492 64.221674-68.75492 110.10877 0 24.201192 9.68764 46.946218 21.100574 66.505693 65.246003-80.048127 164.321486-132.699278 274.233781-138.249691-2.245134 9.679453-2.628874 19.794835-2.628874 30.144554 0 73.03848 59.628052 132.267443 132.705418 132.267443 38.055734 0 72.609715-16.096607 96.734158-41.792848 30.144554 5.978155 58.57814 16.960277 84.116793 32.109302-9.833973-30.852682-30.761608-56.82317-58.074673-73.158207 26.704199 3.182482 36.348859 10.29139 60.034305 20.760836 0.031722 0.048095-15.651468 0.090051-15.651468 0.138146l0-0.080841c0-0.022513 15.703657-0.035816 15.652492-0.058328C826.315662 537.653519 819.818691 514.396839 794.009885 495.777783z"  horiz-adv-x="1024" />

    
    <glyph glyph-name="yidongyunkongzhitaiicon58" unicode="&#59214;" d="M948.75 294.75c-2.5 0-281.25 458.75-281.25 458.75 16.25 13.75 21.25 28.75 21.25 51.25 0 42.5-33.75 77.5-76.25 78.75-82.5 1.25-85-85-82.5-88.75l-312.5-116.25c-13.75 20-33.75 27.5-58.75 27.5-43.75 0-78.75-35-78.75-78.75 0-35 18.75-65 50-75l-71.25-300c-35-7.5-57.5-38.75-57.5-76.25 0-43.75 35-78.75 78.75-78.75 23.75 0 45 10 61.25 27.5l292.5-162.5 0-2.5c0-43.75 35-78.75 78.75-78.75 47.5 0 78.75 42.5 73.75 83.75l311.25 182.5c13.75-10 31.25-11.25 48.75-11.25 43.75 0 78.75 35 78.75 78.75C1023.75 254.75 987.5 296 948.75 294.75zM607.5 846c21.25 0 38.75-17.5 38.75-38.75s-17.5-38.75-38.75-38.75c-21.25 0-38.75 17.5-38.75 38.75C568.75 827.25 586.25 846 607.5 846zM546.25 438.5 403.75 521l182.5 210c2.5 0-3.75 0 0 0L546.25 438.5zM580 376l242.5-136.25-260-10L580 376zM537.5 397.25l-17.5-173.75-126.25-6.25-87.5 181.25 73.75 90L537.5 397.25zM545 758.5c2.5-3.75 6.25-6.25 7.5-10L372.5 539.75l-140 80c0 3.75 0 7.5 0 10 0 3.75 0 10-2.5 13.75L545 758.5zM221.25 586 350 513.5l-65-75-66.25 145L221.25 586zM116.25 629.75c0 21.25 17.5 38.75 38.75 38.75s38.75-17.5 38.75-38.75c0-21.25-17.5-38.75-38.75-38.75S116.25 607.25 116.25 629.75zM77.5 138.5c-21.25 0-38.75 17.5-38.75 38.75 0 21.25 17.5 38.75 38.75 38.75s38.75-17.5 38.75-38.75C116.25 156 98.75 138.5 77.5 138.5zM121.25 244.75c-6.25 3.75-11.25 6.25-20 10l71.25 300c6.25 2.5 10 0 16.25 2.5l71.25-151.25L121.25 244.75zM146.25 217.25 275 371l71.25-158.75L150 203.5C146.25 211 150 211 146.25 217.25zM441.25 6 161.25 161l203.75 11.25 75-161.25C438.75 7.25 442.5 11 441.25 6zM408.75 173.5l103.75 6.25-17.5-140c-7.5-2.5-13.75-3.75-20-6.25L408.75 173.5zM510-77.75c-21.25 0-38.75 17.5-38.75 38.75 0 21.25 17.5 38.75 38.75 38.75s38.75-17.5 38.75-38.75C548.75-60.25 531.25-77.75 510-77.75zM573.75 4.75c-10 13.75-23.75 25-41.25 31.25l20 143.75 312.5 16.25c2.5-6.25 3.75-11.25 6.25-17.5L573.75 4.75zM872.5 254.75 583.75 419.75 625 729.75c2.5 0 3.75 0 3.75 2.5l272.5-446.25C890 279.75 878.75 268.5 872.5 254.75zM941.25 177.25c-21.25 0-38.75 17.5-38.75 38.75 0 21.25 17.5 38.75 38.75 38.75 21.25 0 38.75-17.5 38.75-38.75C981.25 196 963.75 177.25 941.25 177.25z"  horiz-adv-x="1025" />

    
    <glyph glyph-name="xueli" unicode="&#58940;" d="M502.213611 260.902404c-9.69378 0-19.166525 2.068102-25.326828 5.5279L53.409932 504.017444c-5.940292 3.338025-9.621125 9.619078-9.621125 16.437367 0 6.815219 3.681856 13.105482 9.621125 16.437367l423.524946 237.586117c12.099572 6.859221 38.334073 6.90834 50.630121-0.061398l423.414429-237.524718c5.940292-3.331885 9.621125-9.621125 9.621125-16.437367 0-6.817266-3.681856-13.099343-9.621125-16.437367L527.492344 266.412908C521.38116 262.964366 511.907391 260.902404 502.213611 260.902404zM495.343133 299.297876c0.195451 0 2.944052-0.699941 6.871501-0.699941 4.072759 0 6.797823 0.741897 7.509021 1.030469L903.246287 520.453788 509.061576 741.579001l0 0c-0.171915 0-2.921539 0.705058-6.846942 0.705058-4.099365 0-6.79987-0.735757-7.511067-1.02433L101.156376 520.453788 495.343133 299.297876 495.343133 299.297876zM502.336408-11.631666c-84.041068 0-162.759921 13.020548-221.659379 36.678364-50.677193 20.35663-81.084737 46.934962-81.317027 71.108524 0 0.833995-0.062422 1.632173-0.159636 2.405793l-0.159636 2.40477L199.04073 445.479213l37.696554 0 0-343.42156c0.157589-1.483794 0.257873-2.980891 0.293689-4.491291 1.939165-4.307096 15.754822-20.700461 57.697073-37.536918 54.530964-21.902846 128.267339-33.965579 207.609385-33.965579 79.368652 0 153.090701 12.062733 207.597105 33.965579 42.089607 16.897855 55.856146 33.340339 57.697073 37.561477l0.073678 1.681292-0.050142 346.18858 37.696554 0 0-347.404268-18.897396-1.730411 18.847254-0.184195c-0.243547-24.173562-30.651091-50.751894-81.329307-71.096245C665.119865 1.387859 586.390779-11.631666 502.336408-11.631666zM980.21017 428.109614M936.428014 88.718857c-10.407024 0-18.8493 8.429996-18.8493 18.847254L917.578714 399.328104c0 10.413164 8.442276 18.848277 18.8493 18.848277s18.8493-8.435113 18.8493-18.848277l0-291.761993C955.277314 97.149876 946.835038 88.718857 936.428014 88.718857z"  horiz-adv-x="1024" />

    
    <glyph glyph-name="sousuo" unicode="&#58963;" d="M970.961455-28.672 828.648727 113.640727C906.263273 196.817455 954.181818 308.061091 954.181818 430.545455 954.181818 687.220364 745.402182 896 488.727273 896 232.075636 896 23.272727 687.220364 23.272727 430.545455 23.272727 338.269091 50.338909 248.948364 101.585455 172.311273 112.290909 156.229818 133.957818 152.017455 149.992727 162.676364 166.027636 173.381818 170.333091 195.048727 159.627636 211.083636 116.107636 276.224 93.090909 352.093091 93.090909 430.545455 93.090909 648.704 270.568727 826.181818 488.727273 826.181818 706.885818 826.181818 884.363636 648.704 884.363636 430.545455 884.363636 212.386909 706.885818 34.909091 488.727273 34.909091 409.995636 34.909091 333.940364 58.042182 268.730182 101.771636 252.741818 112.453818 231.051636 108.241455 220.276364 92.229818 209.547636 76.218182 213.829818 54.528 229.818182 43.776 306.571636-7.703273 396.101818-34.909091 488.727273-34.909091 580.887273-34.909091 666.647273-7.633455 739.002182 38.749091L888.692364-110.941091C900.049455-122.298182 914.944-128 929.815273-128 944.709818-128 959.604364-122.298182 970.961455-110.941091 993.698909-88.226909 993.698909-51.409455 970.961455-28.672ZM247.552 499.304727C273.501091 599.936 356.910545 673.314909 460.055273 686.231273 479.185455 688.628364 492.753455 706.082909 490.356364 725.213091 487.959273 744.343273 470.365091 757.934545 451.374545 755.514182 319.627636 739.013818 213.108364 645.271273 179.968 516.712727 175.150545 498.048 186.368 479.010909 205.056 474.216727 207.965091 473.448727 210.897455 473.099636 213.783273 473.099636 229.329455 473.099636 243.502545 483.549091 247.552 499.304727Z"  horiz-adv-x="1024" />

    
    <glyph glyph-name="jiaruqun" unicode="&#59007;" d="M798.743 834.025c3.296 3.296 9.888 6.592 13.184 6.592 13.184 0 19.776-9.888 19.776-19.776v-75.805h75.805c9.888 0 19.776-9.888 19.776-19.776s-9.888-19.776-19.776-19.776h-75.805v-72.51c0-13.184-6.592-19.776-19.776-19.776-9.888 0-16.479 6.592-16.479 19.776v72.51h-75.805c-9.888 0-19.776 9.888-19.776 19.776 0 6.592 3.296 9.888 6.592 13.184 3.296 3.296 6.592 6.592 13.184 6.592h75.805v75.805c0 3.296 0 9.888 3.296 13.184zM933.875 425.333c0 69.214-16.479 135.132-46.143 194.458-13.184 26.367-46.143 6.592-32.959-16.479 26.367-52.734 42.847-115.357 42.847-177.979 0-92.286-32.959-177.979-88.989-243.896-13.184 65.918-39.551 118.653-95.581 145.020 9.888 19.776 16.479 39.551 16.479 65.918v194.458c0 16.479-3.296 32.959-9.888 46.143-9.888 9.888-16.479 19.776-19.776 32.959-23.071 26.367-59.326 39.551-92.286 42.847-16.479 0-26.367-13.184-26.367-23.071 3.296-9.888 13.184-16.479 19.776-16.479 46.143-6.592 88.989-32.959 88.989-79.102v-197.754c0-23.071-6.592-46.143-26.367-56.031-16.479-13.184-13.184-29.663 3.296-32.959 9.888-3.296 19.776-6.592 29.663-9.888 52.734-23.071 72.51-79.102 82.398-148.315-32.959-29.663-72.51-56.031-112.060-72.51-6.592 105.469-23.071 204.346-108.765 247.193 9.888 19.776 16.479 39.551 16.479 62.622v217.529c0 158.203-276.856 158.203-276.856 0v-217.529c0-23.071 6.592-42.847 16.479-62.622-56.031-26.367-82.398-79.102-98.877-141.724-52.734 69.214-85.693 154.907-85.693 247.193 0 210.938 171.387 382.325 382.325 382.325 69.214 0 131.836-16.479 184.57-46.143 9.888-6.592 19.776-3.296 26.367 3.296 6.592 9.888 6.592 23.071-9.888 32.959-59.326 29.663-128.54 49.438-201.050 49.438-234.008 0-421.875-187.867-421.875-421.875 0-234.008 187.867-421.875 421.875-421.875 234.008 0 421.875 187.867 421.875 421.875zM627.357 59.488c-36.255-13.184-75.805-19.776-115.357-19.776-102.172 0-194.458 39.551-263.672 105.469 9.888 69.214 32.959 125.244 88.989 145.020 39.551-36.255 158.203-36.255 194.458 0 79.102-29.663 92.286-128.54 95.581-230.713zM334.021 382.486v217.529c0 105.469 204.346 105.469 204.346 0v-217.529c0-105.469-204.346-105.469-204.346 0z"  horiz-adv-x="1024" />

    
    <glyph glyph-name="fengcai" unicode="&#59068;" d="M486.099608 337.887776C545.559838 263.256008 625.267205 203.597257 647.55993 103.966119c1.661849-7.43432 2.334161-15.282055 2.142803-22.909779-0.984421-38.998199-17.795295-67.249637-45.2506-76.962859-25.51921-9.029654-61.195757 3.377934-82.434477 33.851992-13.973246 20.050662-27.398 43.305295-31.593556 66.815755C476.754776 181.417095 476.386386 259.015428 486.099608 337.887776zM523.458471 342.165196c77.204359-18.769482 155.049309-35.351136 231.340879-57.32152 32.760125-9.435906 56.715723-35.933397 70.662363-68.483744 20.006659-46.684252-4.598738-90.193185-54.834886-88.601944-30.274514 0.956791-64.989153 8.623401-89.231277 25.464975-66.843384 46.448892-112.458281 114.244974-163.762761 176.020946C519.577071 333.548958 521.510096 337.8581 523.458471 342.165196zM547.660686 388.996804c31.106462 72.109318 60.699454 144.93802 94.022397 216.008682 14.735609 31.429827 43.829228 50.758034 77.469396 61.021795 51.6698 15.775288 89.072665-14.223956 84.177168-68.160379-3.685949-40.579207-22.61916-74.837452-55.637158-97.384981-61.847603-42.241057-125.871779-81.288374-188.999538-121.662921C555.019281 382.205121 551.339472 385.600451 547.660686 388.996804zM461.962885 362.561735c2.255367-84.443227 12.96222-168.797427-10.749832-250.055103-7.989975-27.381627-30.65723-53.876048-53.287647-72.806189-35.787064-29.93273-82.283028-15.063067-93.15975 30.070876-6.847965 28.424376-8.414647 63.713091 2.436492 89.763396C340.540442 239.57568 403.458423 299.221128 461.962885 362.561735zM481.562269 419.985586c-83.034135-15.978926-163.461909-38.151925-246.402923-30.978549-28.449959 2.462075-59.364039 18.502399-81.986269 37.06722-41.073464 33.708729-30.999015 86.980004 19.019169 104.965633 25.137517 9.041934 54.840002 11.716856 81.523735 8.736988C298.525536 534.760632 442.111768 456.195276 481.562269 419.985586zM543.442618 360.437351c67.37448 34.426067 134.01218 70.411653 202.412013 102.667288 37.216623 17.551748 77.249385 15.170514 114.294093-4.181229 41.133839-21.494547 47.989991-64.296375 16.529465-98.707093-23.840988-26.088168-55.187927-43.668569-89.066525-41.455157-80.908728 5.288446-161.437809 16.425088-242.117316 25.206078C544.810778 349.452159 544.126186 354.939127 543.442618 360.437351zM532.770558 414.422893c-22.297842 76.120678-46.688345 151.711284-65.965387 228.591255-8.881274 35.422767 2.077312 71.007217 25.111934 100.795661 27.366278 35.388998 70.443375 35.932374 98.468662 0.921999 28.65769-35.803437 35.3276-78.496795 23.940249-120.587426-19.054985-70.424956-43.519166-139.377374-65.711608-208.951963C543.326984 414.936593 538.055934 414.683836 532.770558 414.422893zM465.809493 390.048763c-56.091506-58.777685-110.646006-119.145587-168.984692-175.600367-25.585725-24.76401-61.922305-29.880541-97.832166-25.350364-40.942481 5.16258-62.550615 36.988426-51.399647 76.502371 10.646478 37.727253 36.44505 64.288189 71.024613 79.190597 76.604702 33.012881 159.178349 40.622186 240.305041 53.906747C461.217918 395.813047 463.511147 392.93244 465.809493 390.048763zM506.203482 425.479717c-62.466704 39.84345-126.20947 77.852112-186.92018 120.212896-37.116339 25.89681-57.731866 64.488757-55.878658 111.806435 1.609661 41.156352 32.377408 65.259306 72.770374 57.174164 34.757618-6.960529 63.572898-25.414833 82.591043-54.43989 45.821605-69.931722 68.490907-149.71379 95.300506-227.606835C511.446903 430.24116 508.826216 427.859927 506.203482 425.479717z"  horiz-adv-x="1024" />

    
    <glyph glyph-name="jiahao" unicode="&#58933;" d="M288.191617 428.761677l447.616766 0 0-89.523353-447.616766 0 0 89.523353ZM556.761677 607.808383l0-447.616766-89.523353 0 0 447.616766 89.523353 0Z"  horiz-adv-x="1024" />

    
    <glyph glyph-name="caidanmenu45" unicode="&#58917;" d="M1011.064471 570.182275c7.12115 0 12.938876 6.09715 12.938876 12.938876l0 67.210876c0 7.12115-5.493124 12.938876-12.938876 12.938876L12.942222 663.270902c-7.12115 0-12.938876-6.09715-12.938876-12.938876l0-67.210876c0-7.12115 5.493124-12.938876 12.938876-12.938876L1011.064471 570.182275zM0.003346 350.393725c0-7.12115 5.493124-12.938876 12.938876-12.938876l998.120575 0c7.12115 0 12.938876 6.09715 12.938876 12.938876l0 67.210876c0 7.168-5.493124 12.938876-12.938876 12.938876L12.942222 430.543477c-7.12115 0-12.938876-6.09715-12.938876-12.938876L0.003346 350.393725zM0.003346 117.666301c0-7.12115 5.493124-12.938876 12.938876-12.938876l998.120575 0c7.12115 0 12.938876 6.09715 12.938876 12.938876l0 67.210876c0 7.12115-5.493124 12.938876-12.938876 12.938876L12.942222 197.816052c-7.12115 0-12.938876-6.09715-12.938876-12.938876L0.003346 117.666301z"  horiz-adv-x="1025" />

    
    <glyph glyph-name="jushihui" unicode="&#58934;" d="M604.68224 117.33504 417.37216 117.33504c-2.79552 0-5.59104 0.46592-8.23296 1.47456-12.66688 4.6592-50.432 35.0464-120.71424 106.30656C117.62688 398.24384 131.02592 547.74272 131.76832 553.96352 131.6096 722.11968 299.96032 854.2208 510.35136 854.2208c210.35008 0 379.32032-131.712 382.16192-302.6688 0.1536-9.40032 12.43136-150.82496-158.37184-323.95264-70.3232-71.26016-108.59008-104.13056-121.22112-108.78976C610.2784 117.80096 607.51872 117.33504 604.68224 117.33504L604.68224 117.33504M419.58912 154.86464l180.89984-0.61952c9.21088 7.22944 36.95104 32.24576 106.92096 103.1936 154.86976 156.88704 148.10624 287.20128 147.95264 288.44032-0.1536 147.48672-161.62816 269.79328-345.63584 269.79328-184.04864 0-339.42016-121.37472-339.42016-266.06592-0.31232-3.96288-11.69408-135.43936 141.73696-290.92864L419.58912 154.86464zM424.6784 158.1312 424.6784 158.1312zM563.85024-87.3472 458.05056-87.3472c-11.34592 0-21.0944 8.00256-23.35232 19.11296l-27.27424 123.79136c-1.47968 7.0656 0.31232 14.37696 4.85376 19.8912 4.54656 5.59616 11.30496 8.8576 18.5344 8.8576l159.84128 0c7.18336 0 13.98272-3.26656 18.49344-8.8576 4.58752-5.51424 6.36928-12.8256 4.89472-19.8912l-26.80832-123.79136C584.9088-79.33952 575.19616-87.3472 563.85024-87.3472L563.85024-87.3472M464.96768-50.89792l90.76224 0 19.08224 99.07712-129.3056-0.61952L464.96768-50.89792zM477.5168-39.552 477.5168-39.552zM489.02144 117.72416c-42.34752 194.33984-16.4352 683.264-15.3088 704.01024l39.7056-2.176c-0.27136-4.97664-26.73152-504.31488 14.53056-693.37088L489.02144 117.72416 489.02144 117.72416zM426.19392 125.33248c-2.28864 5.75488-56.84224 141.81376-73.00608 188.2112-11.65312 33.408-33.64864 101.248-42.97216 136.52992-26.57792 100.70528-22.84544 194.26304 11.42272 286.11072 21.76 58.35264 57.38496 95.03232 58.90048 96.5888l28.40064-27.89376c-0.31232-0.31232-31.35488-32.55808-50.08384-82.60096-31.23712-83.84512-34.58048-169.55392-10.17856-262.02624 8.704-33.10592 30.38208-100.08576 42.0352-133.5808 15.92832-45.53216 71.87968-185.16992 72.4224-186.56256L426.19392 125.33248 426.19392 125.33248zM565.3248 127.67232l-37.4528 13.44512c0.86016 2.4064 86.02112 239.7952 106.22976 330.78784 21.79584 98.14016 18.41152 186.5728-10.03008 262.80448-18.57024 49.81248-41.8048 74.36288-42.04032 74.5984l28.5184 27.74016c1.17248-1.16736 29.06624-30.06976 50.82112-88.42752 31.16032-83.61472 35.0464-179.57888 11.57632-285.33248C652.20096 369.87904 568.8576 137.46176 565.3248 127.67232L565.3248 127.67232zM680.76032 196.67968l-38.43072-3.20512c215.56736 298.88 66.00192 574.62784 67.25632 572.544l34.15552 7.12192C737.87392 782.93504 913.89952 511.45216 680.76032 196.67968L680.76032 196.67968z"  horiz-adv-x="1024" />

    
    <glyph glyph-name="boshimao" unicode="&#58887;" d="M945.08544 529.3568l-425.97376 183.1936a20.5312 20.5312 0 0 1-8.12544 1.6896c-2.7648 0-5.52448-0.5632-8.14592-1.6896L76.87168 529.3568c-8.98048-3.84512-14.92992-13.65504-14.92992-24.59136 0-10.9568 5.94944-20.74112 14.92992-24.60672L502.8352 296.96a20.29056 20.29056 0 0 1 16.27136 0l331.1872 142.43328v-145.7152c-17.75104-9.40032-30.08512-29.8496-30.08512-53.62688 0-23.7824 12.33408-44.22656 30.08512-53.62688v-50.83136h43.6224v50.82112c17.76128 9.40032 30.1056 29.8496 30.1056 53.63712s-12.34432 44.2368-30.1056 53.63712V458.15296l51.16416 22.00576c8.97536 3.8656 14.9248 13.65504 14.9248 24.60672 0 10.93632-5.94944 20.74624-14.9248 24.59136z m-434.0992-269.16352a47.96928 47.96928 0 0 0-19.03104 3.95776L226.4064 378.368v-157.70112c0-129.16224 193.65888-167.936 254.208-167.936h60.69248c45.35808 0 254.22848 38.77376 254.22848 167.936v157.696l-265.55904-114.21184a47.76448 47.76448 0 0 0-18.9952-3.95776z"  horiz-adv-x="1024" />

    
    <glyph glyph-name="pingguo" unicode="&#58896;" d="M836.608 220.16q41.984-59.392 96.256-76.8-23.552-72.704-74.752-151.552-78.848-118.784-155.648-118.784-28.672 0-84.992 19.456-52.224 19.456-91.136 19.456t-86.016-20.48q-49.152-19.456-80.896-19.456-92.16 0-181.248 156.672-89.088 154.624-89.088 304.128 0 138.24 67.584 226.304 69.632 88.064 172.032 88.064 22.528 0 50.176-5.632t57.344-20.992q31.744-17.408 52.224-24.064t31.744-6.656q13.312 0 40.96 6.144t55.296 22.528q29.696 16.384 51.2 24.576t44.032 8.192q71.68 0 129.024-38.912 30.72-20.48 62.464-60.416-47.104-40.96-68.608-71.68-39.936-57.344-39.936-124.928 0-74.752 41.984-135.168z m-205.824 478.208q-35.84-33.792-65.536-44.032-10.24-3.072-26.112-5.632t-36.352-4.608q1.024 90.112 47.104 155.648T701.44 889.856q2.048-10.24 3.072-14.336v-11.264q0-36.864-17.408-82.944-18.432-45.056-56.32-82.944z"  horiz-adv-x="1024" />

    
    <glyph glyph-name="user" unicode="&#58895;" d="M512 656.64m-239.36 0a239.36 239.36 0 1 1 478.72 0 239.36 239.36 0 1 1-478.72 0ZM512 417.28a512 512 0 0 1-512-512V-128h1024v33.28a512 512 0 0 1-512 512z"  horiz-adv-x="1024" />

    
    <glyph glyph-name="-linkedin" unicode="&#58881;" d="M928 896h-832C43.2 896 0 852.8 0 800v-832c0-52.8 43.2-96 96-96h832c52.8 0 96 43.2 96 96v832c0 52.8-43.2 96-96 96zM384 64H256V512h128v-448zM320 576a64 64 0 1 0 0 128 64 64 0 1 0 0-128z m512-512h-128V320a64 64 0 1 1-128 0v-256H448V512h128v-79.424C602.368 468.8 642.816 512 688 512 767.616 512 832 440.384 832 352V64z"  horiz-adv-x="1024" />

    
    <glyph glyph-name="xialajiantou" unicode="&#58921;" d="M843.946667 610.133333L512 278.613333 180.053333 610.133333 119.893333 549.973333l331.946667-331.946666L512 157.866667l392.106667 392.106666-60.16 60.16z"  horiz-adv-x="1024" />

    
    <glyph glyph-name="zhongguo" unicode="&#59101;" d="M11.321867-121.710074h1520.904177V889.710074H11.321867v-1011.420148z m1524.678133-3.773955v3.773955-3.773955zM5.031941-128V896h1533.48403v-1024H5.031941zM8.805897 893.484029h1527.194103V-124.226044H8.805897zM264.176904 777.749386l32.707617-99.380836h104.412776L317.012285 617.985258l31.449631-99.380835L264.176904 580.2457l-84.285012-61.641277 32.707617 99.380835-84.285013 60.383292h104.412777zM535.90172 830.584767l-1.257985-35.223588 31.449631-12.579852-33.965602-8.805897-1.257985-33.965602-18.869779 28.933661-32.707617-7.547912 21.38575 26.417691-17.611794 28.933661 31.449632-13.837838zM652.894349 718.624079l-15.095823-30.191647 23.90172-23.901719-33.965602 5.031941-15.095823-30.191647-5.031941 33.965602-33.965602 5.031941L603.832924 693.464373l-5.031941 33.965602 23.90172-23.901719zM617.670762 580.2457l11.321867-32.707616h33.965602l-27.675676-20.127765 10.063882-32.707616-27.675675 20.127764-27.675676-20.127764 11.321867 32.707616-27.675675 20.127765h33.965602zM535.90172 474.574939l-2.515971-33.965602 32.707617-12.579853-33.965602-8.805897-2.51597-33.965602-17.611794 28.933661-33.965602-8.805897 22.643735 26.417691-18.869779 28.933661 32.707617-12.579853z"  horiz-adv-x="1546" />

    
    <glyph glyph-name="lianjiekuai" unicode="&#59031;" d="M896 832h-768c-35.2 0-64-28.8-64-64v-768c0-35.2 28.8-64 64-64h768c35.2 0 64 28.8 64 64v768c0 35.2-28.8 64-64 64zM896 32c0-19.2-12.8-32-32-32h-704c-19.2 0-32 12.8-32 32v704c0 19.2 12.8 32 32 32h704c19.2 0 32-12.8 32-32v-704zM592 656l-115.2-112c-12.8-12.8-12.8-32 0-44.8s32-12.8 44.8 0l112 112c25.6 25.6 64 25.6 89.6 0 25.6-25.6 25.6-64 0-89.6l-131.2-137.6c-25.6-25.6-64-25.6-89.6 0-12.8 12.8-32 12.8-44.8 0s-12.8-32 0-44.8c51.2-51.2 131.2-51.2 182.4 0l137.6 137.6c51.2 51.2 51.2 131.2 0 182.4-54.4 48-137.6 48-185.6-3.2zM489.6 284.8l-112-112c-25.6-25.6-64-25.6-89.6 0s-25.6 64 0 89.6l134.4 134.4c25.6 25.6 64 25.6 89.6 0 12.8-12.8 32-12.8 44.8 0 12.8 12.8 12.8 32 0 44.8-51.2 51.2-131.2 51.2-182.4 0l-137.6-137.6c-44.8-48-44.8-128 3.2-179.2 51.2-51.2 131.2-51.2 182.4 0l112 112c12.8 12.8 12.8 32 0 44.8-12.8 16-32 16-44.8 3.2z"  horiz-adv-x="1024" />

    
    <glyph glyph-name="zuoyoujiantou2" unicode="&#58884;" d="M281.241-40.602l36.198-36.198 450.56 450.56-450.56 450.56-36.198-36.198 414.362-414.362z"  horiz-adv-x="1024" />

    
    <glyph glyph-name="zuoyoujiantou" unicode="&#58885;" d="M742.759 808.602l-36.198 36.198-450.56-450.56 450.56-450.56 36.198 36.198-414.362 414.362z"  horiz-adv-x="1024" />

    
    <glyph glyph-name="bi-data" unicode="&#59170;" d="M503.253333 129.152c-9.130667-1.237333-20.778667-4.565333-34.496-10.389333a542.72 542.72 0 0 1-35.370666-16.213334l-14.549334-7.488a9.045333 9.045333 0 0 0-3.328-2.090666 155.370667 155.370667 0 0 1-8.746666-4.992l-12.458667-7.466667c-4.16-2.517333-8.32-5.013333-13.312-7.914667a129.216 129.216 0 0 1-12.48-8.32 55.210667 55.210667 0 0 1-8.746667-7.893333c-2.069333-2.496-3.733333-4.992-3.733333-6.656 0-3.754667 5.418667-9.173333 16.64-16.64 10.816-7.082667 22.037333-13.738667 33.28-19.968 11.221333-5.824 16.64-8.746667 16.64-7.893333 43.242667-22.058667 72.768-33.28 89.002667-33.28 7.466667 0 18.282667 2.901333 32.853333 8.32a773.461333 773.461333 0 0 1 38.677333 16.64l16.213334 7.893333c38.250667 18.304 60.309333 32.853333 66.56 42.837333 1.642667 3.754667 0 8.32-5.418667 13.717334-5.418667 5.418667-13.312 11.242667-24.533333 17.493333l-21.632 11.626667c-2.922667 1.664-7.488 3.754667-13.312 6.656-48.234667 24.106667-80.277333 34.517333-97.728 32.021333m-48.661334 24.106667c1.664 3.349333 0 7.509333-4.992 12.501333-4.992 4.992-12.074667 10.389333-21.632 16.213333-7.061333 4.565333-14.549333 8.746667-22.037333 12.48-4.992 2.901333-10.410667 4.992-15.808 7.466667a3.157333 3.157333 0 0 1-1.664 0.853333c-46.997333 23.701333-79.445333 34.090667-97.322667 31.594667-19.541333-3.328-47.402667-14.954667-83.584-34.922667a7.957333 7.957333 0 0 0-3.328-1.664c-1.664-0.426667-4.586667-2.090667-8.746666-4.586666-8.746667-4.992-17.877333-10.389333-26.197334-15.786667-4.266667-2.837333-8.533333-5.610667-12.885333-8.32a25.194667 25.194667 0 0 1-8.32-7.893333c-2.090667-2.517333-3.328-5.013333-3.328-6.677334 0-3.733333 5.397333-9.557333 16.64-17.045333 10.389333-7.061333 21.610667-13.717333 32.853333-19.541333 10.816-5.418667 16.64-7.893333 17.066667-7.893334 4.970667-2.517333 11.2-5.845333 18.688-9.578666s19.562667-8.746667 35.776-14.549334c16.213333-5.824 27.861333-8.746667 35.349333-8.746666 7.466667 0 18.304 2.922667 32.853334 8.32 12.885333 4.992 25.386667 10.410667 37.845333 16.213333 10.410667 4.992 16.213333 7.893333 16.64 8.32 38.272 18.730667 60.309333 33.28 66.133333 43.264m461.653334 123.093333c0.405333 4.992 0.810667 12.074667 0.405333 21.226667-0.426667 9.152-2.090667 22.037333-4.992 38.250667-2.922667 16.213333-7.488 27.861333-12.906667 34.517333-5.824 6.656-14.549333 13.738667-27.029333 22.464a440.341333 440.341333 0 0 1-32.426667 19.968l-14.570666 7.893333c-2.069333 1.258667-4.16 2.496-6.656 3.754667-2.496 1.237333-7.893333 4.16-15.381334 7.893333a184.277333 184.277333 0 0 1-20.8 9.984c-5.824 2.496-12.053333 4.565333-18.304 6.656-5.802667 1.664-9.962667 2.069333-12.053333 0.832-3.733333-2.090667-6.656-9.578667-7.893333-22.037333a266.026667 266.026667 0 0 1-2.496-36.608l0.832-17.066667c0-45.738667 4.16-75.264 12.053333-88.149333 3.754667-5.824 11.648-13.312 23.701333-22.464 11.242667-8.32 22.464-15.786667 34.517334-22.869333l16.213333-8.746667c3.754667-2.069333 8.746667-4.992 15.402667-8.725333 6.656-3.733333 16.213333-8.746667 29.525333-14.549334 13.312-5.824 22.464-8.746667 27.861333-8.746666 11.648 0 16.64 25.792 14.976 76.522666M126.890667 420.693333c5.397333 0 14.122667 2.496 26.197333 7.893334a481.408 481.408 0 0 1 32.853333 16.213333l13.717334 7.914667c41.6 23.296 66.133333 41.173333 73.6 54.08 3.754667 5.824 6.677333 16.213333 8.746666 30.762666a286.08 286.08 0 0 1 3.328 39.509334l0.853334 17.898666c1.237333 45.738667-2.090667 71.104-9.6 75.264-3.306667 1.664-10.794667 0-23.253334-4.992-11.669333-4.565333-23.317333-9.984-34.944-15.786666-11.242667-5.845333-16.213333-8.32-15.808-8.32-35.776-18.304-60.309333-34.944-72.789333-49.493334-12.48-14.144-18.709333-45.333333-18.709333-93.994666-0.853333-50.752 4.16-76.522667 15.786666-76.949334m686.656-212.096c-46.997333 23.68-79.445333 34.090667-97.322666 31.594667-8.746667-1.664-19.968-5.397333-34.112-10.816-14.122667-5.802667-25.770667-11.221333-35.754667-16.64l-13.717333-7.466667c-1.258667-0.853333-2.496-1.258667-3.754667-2.090666a150.976 150.976 0 0 0-8.746667-4.992l-12.885333-7.061334c-4.16-2.090667-8.32-4.992-13.290667-7.893333a281.386667 281.386667 0 0 1-12.48-8.746667 88.426667 88.426667 0 0 1-8.746666-7.466666c-2.496-2.517333-3.733333-4.586667-3.733334-6.250667 0.426667-7.893333 22.869333-23.296 66.538667-45.333333 4.992-2.090667 11.221333-4.992 19.136-8.746667 7.893333-3.733333 19.541333-8.725333 35.754667-14.549333 15.808-5.824 27.456-8.746667 34.944-8.746667 7.466667 0 18.304 2.517333 32.853333 7.914667a306.602667 306.602667 0 0 1 38.272 17.066666l16.213333 7.893334c38.677333 18.304 61.141333 32.853333 66.56 42.837333 2.069333 3.328 0.405333 7.893333-5.845333 13.312-5.824 5.824-13.717333 11.221333-22.869333 16.64-9.557333 5.397333-17.066667 9.557333-22.869334 12.885333-7.082667 3.328-11.648 5.397333-14.144 6.656m-543.573333 77.76c3.328 5.824 5.824 16.213333 7.893333 30.784 2.090667 14.549333 3.328 27.861333 4.16 39.509334v17.877333c1.258667 45.76-2.069333 71.125333-9.557333 75.285333-3.328 1.664-10.816 0-22.869333-4.992a445.44 445.44 0 0 1-34.944-15.808c-11.221333-5.824-16.213333-8.32-15.786667-8.32-36.202667-18.709333-60.330667-35.754667-72.789333-50.325333-12.48-14.144-18.730667-45.333333-18.730667-93.994667-1.237333-50.730667 4.16-76.522667 15.402667-76.928 5.397333 0 14.144 2.496 26.197333 7.893334a481.408 481.408 0 0 1 32.853333 16.213333l13.717334 7.893333c41.6 23.722667 66.56 41.6 74.453333 54.912m271.573333 338.133334c3.754667-5.824 12.053333-13.312 24.106667-22.464 10.837333-7.893333 22.485333-15.381333 34.133333-22.464l16.213334-9.557334c3.733333-2.090667 8.746667-4.992 15.381333-8.746666 6.656-3.733333 16.213333-8.725333 29.525333-14.549334 13.312-5.824 22.464-8.746667 27.861334-7.893333 11.242667 0 16.213333 25.365333 14.570666 76.096 0 49.066667-5.824 80.277333-17.898666 93.994667-5.397333 6.656-14.122667 13.717333-26.197334 22.464a278.378667 278.378667 0 0 1-32.853333 19.968l-13.717333 7.893333a67.285333 67.285333 0 0 0-7.488 4.16c-2.496 1.664-7.893333 4.16-15.381334 7.893333a316.672 316.672 0 0 1-20.8 9.578667c-5.824 2.496-12.074667 4.565333-18.304 6.656-5.824 1.664-9.984 2.069333-12.053333 0.832-3.754667-1.664-6.656-8.746667-7.893333-21.632-1.685333-12.053333-2.090667-24.533333-1.685334-37.013333v-17.066667c0.853333-45.738667 4.586667-74.837333 12.48-88.149333m148.053334-136.832c-5.397333 6.656-14.122667 13.717333-26.602667 22.464a619.52 619.52 0 0 1-32.426667 20.778666l-13.738666 7.488a67.285333 67.285333 0 0 0-7.488 4.16 178.218667 178.218667 0 0 1-15.381334 7.893334 316.672 316.672 0 0 1-20.8 9.578666 237.205333 237.205333 0 0 1-18.304 6.656c-5.824 1.664-9.984 2.069333-12.053333 0.832-3.754667-1.664-6.656-8.746667-7.893333-21.632-1.685333-12.053333-2.090667-24.533333-1.685334-37.013333v-17.066667c0.426667-45.738667 4.586667-75.264 12.074667-88.149333 3.733333-5.824 12.053333-13.312 24.106667-22.464 10.816-7.893333 22.464-15.381333 34.112-22.464l16.213333-8.725333c3.754667-2.496 8.746667-5.824 15.402667-9.152 6.634667-3.328 16.213333-8.32 29.525333-14.549334 13.312-6.250667 22.442667-9.173333 27.861333-8.32 4.16 0 7.893333 3.733333 9.984 10.816 2.496 7.466667 3.733333 16.213333 4.565334 27.029334 0.426667 10.816 0.853333 19.136 0.853333 24.533333 0 5.824-0.426667 9.984-0.853333 13.312-0.832 51.157333-6.656 82.346667-17.472 93.994667m60.736 19.541333c3.733333-5.824 12.053333-13.312 24.106666-22.464 11.242667-7.893333 22.464-15.786667 34.112-23.274667l16.213334-8.746666c3.754667-2.069333 8.746667-4.992 15.402666-8.746667 6.634667-3.733333 16.213333-8.725333 29.525334-14.528 13.312-5.824 22.442667-8.746667 27.861333-8.746667 11.221333 0.426667 16.213333 26.197333 14.549333 76.949334 0 48.64-5.824 79.850667-17.877333 93.994666-5.418667 6.634667-14.144 13.717333-26.624 22.442667a440.341333 440.341333 0 0 1-32.426667 19.968l-13.738666 7.893333-7.466667 3.328a177.685333 177.685333 0 0 1-15.402667 8.32 184.277333 184.277333 0 0 1-20.8 9.984 237.205333 237.205333 0 0 1-18.282666 6.656c-5.824 1.664-9.984 2.090667-12.074667 0.853334-3.733333-2.090667-6.656-9.6-7.893333-22.058667-1.664-12.053333-2.090667-24.106667-1.664-36.608v-17.045333c0.832-45.738667 4.992-75.285333 12.48-88.170667m-418.816-189.653333c5.418667-0.426667 14.144 2.090667 26.197333 7.488a485.632 485.632 0 0 1 32.853333 16.213333l13.738667 8.746667c41.6 22.869333 66.133333 40.341333 73.6 53.653333 3.754667 5.824 6.656 16.213333 8.746667 30.762667a286.08 286.08 0 0 1 3.328 39.509333l0.832 17.898667c1.237333 45.738667-2.090667 71.104-9.578667 75.264-3.328 2.090667-11.221333 0.853333-23.274667-4.16a256 256 0 0 1-34.112-16.213334l-16.213333-8.746666c-36.181333-18.709333-60.309333-35.754667-72.789333-50.304-12.48-13.312-18.709333-44.928-18.709334-93.994667v-12.885333c0-5.824 0.426667-14.144 0.832-24.96 0.426667-10.816 2.069333-19.968 4.565334-27.029334 2.496-7.488 5.824-11.242667 9.984-11.242666m26.624-52.394667c0-3.328 5.824-8.746667 17.066666-16.213333a547.84 547.84 0 0 1 33.258667-20.394667l16.213333-7.893333c43.669333-22.037333 73.6-33.28 89.834667-33.28 7.061333 0 17.877333 2.922667 32.426667 8.32a443.157333 443.157333 0 0 1 38.272 16.64l16.213333 7.893333c38.677333 18.730667 61.141333 33.28 66.56 43.690667 1.237333 1.237333 1.237333 2.474667 0.426667 4.565333a24.832 24.832 0 0 1-3.754667 6.229333 50.304 50.304 0 0 1-6.656 6.656c-2.922667 2.090667-5.418667 4.16-8.32 6.250667-2.922667 2.069333-6.250667 4.16-9.984 6.656l-9.984 6.229333c-3.328 1.664-6.229333 3.328-9.557333 4.992-2.922667 1.258667-5.824 2.496-8.32 4.16l-5.824 2.496c-1.664 1.237333-2.496 2.069333-2.496 2.496-45.333333 23.701333-77.781333 34.090667-97.322667 31.616-8.746667-1.664-19.968-5.418667-34.112-10.816-14.122667-5.824-25.770667-11.242667-35.754667-16.64l-13.717333-7.488c-1.258667-0.832-2.496-1.258667-3.754667-2.090666a150.976 150.976 0 0 0-8.746666-4.970667c-4.565333-2.496-8.725333-4.992-12.885334-7.488-4.16-2.496-8.32-4.992-13.290666-7.893333a129.216 129.216 0 0 1-12.48-8.32 53.504 53.504 0 0 1-8.746667-7.914667c-3.328-3.754667-4.565333-5.824-4.565333-7.488m-37.845334 349.76c-1.258667-50.730667 4.16-76.096 15.381334-76.096 5.418667-0.426667 14.549333 2.496 27.861333 8.32a613.461333 613.461333 0 0 1 29.12 14.549333c4.992 2.901333 10.389333 5.824 15.786667 8.32l16.234666 9.557334a437.589333 437.589333 0 0 1 34.112 22.464c12.458667 8.746667 20.373333 16.213333 23.274667 22.464 7.893333 12.885333 12.48 42.410667 12.906667 88.170666v17.045334c0.426667 12.053333-0.426667 24.533333-1.664 37.013333-1.258667 12.48-3.754667 19.968-7.488 21.632-2.090667 1.237333-6.250667 0.832-12.074667-0.853333a122.730667 122.730667 0 0 1-18.282667-6.634667c-6.250667-2.922667-12.906667-5.824-20.8-9.578667-7.488-3.733333-12.885333-6.656-15.786666-7.893333a62.613333 62.613333 0 0 1-7.082667-4.16l-13.738667-7.893333a316.8 316.8 0 0 1-32.853333-19.968c-12.053333-8.32-20.778667-15.786667-26.197333-22.464-12.48-13.312-18.709333-44.906667-18.709334-93.994667"  horiz-adv-x="1024" />

    
    <glyph glyph-name="ide-data" unicode="&#59173;" d="M663.850667 543.274667v-324.266667H911.786667l-21.333334 75.541333h-139.968v54.186667h140.373334v64.853333h-140.373334v64.853334h141.184l21.333334 64.853333H663.872z m-237.653334-248.32v183.466666h35.306667c20.117333 0 35.306667-6.549333 45.141333-19.690666 3.712-4.522667 6.165333-11.498667 7.402667-20.522667 1.216-9.024 2.048-27.52 2.048-54.997333 0-19.285333-0.426667-33.664-0.832-43.52-0.405333-9.429333-1.621333-16.426667-2.858667-20.096-1.237333-4.117333-3.285333-4.928-5.76-9.045334-9.834667-12.309333-25.024-15.573333-45.141333-15.573333h-35.306667z m143.658667-44.736c11.904 10.261333 20.949333 20.117333 26.666667 31.616 5.76 11.072 9.450667 22.165333 11.093333 33.642666a289.493333 289.493333 0 0 1 2.474667 41.045334V411.946667c0 16-0.832 29.952-2.474667 41.450666a110.272 110.272 0 0 1-11.093333 34.069334c-5.717333 11.093333-14.762667 17.642667-26.666667 28.309333-24.618667 21.76-58.666667 28.736-102.186667 28.736h-138.730666v-323.84h138.730666c43.52-1.642667 77.568 7.381333 102.186667 29.546667zM113.024 219.029333h97.28v324.266667h-97.28v-324.266667z m156.8 503.616c43.093333 20.117333 94.4 17.642667 151.872-6.976 98.496-42.282667 157.610667-68.544 193.728-84.970666 0.832-28.714667 24.213333-52.117333 52.949333-52.117334a53.248 53.248 0 0 1 53.354667 53.354667 53.248 53.248 0 0 1-53.354667 53.354667c-9.856 0-19.285333-2.858667-27.093333-7.786667-36.117333 16.426667-96.448 43.52-198.656 86.997333-72.64 31.210667-137.898667 32.021333-195.776 6.570667-103.04-45.952-137.92-175.253333-139.562667-180.181333l55.829334-0.426667c0 0.853333 29.952 96.469333 106.709333 132.181333zM359.296 606.506667c27.925333 13.525333 59.946667 33.237333 121.493333 60.736l-66.901333 28.309333c-38.570667-17.237333-56.64-30.784-77.568-41.045333a53.696 53.696 0 0 1-29.973333 9.045333 53.248 53.248 0 0 1-53.333334-53.376 53.248 53.248 0 0 1 53.333334-53.333333 53.930667 53.930667 0 0 1 52.949333 49.642666m246.677333 109.994667c57.877333 24.64 105.493333 26.282667 148.586667 6.570667 76.757333-35.712 106.304-131.328 106.730667-132.16l55.808 0.426666c-1.237333 4.906667-36.522667 133.781333-139.541334 179.754667-57.877333 25.856-123.562667 24.64-195.797333-6.144-17.642667-7.402667-31.594667-13.546667-47.594667-20.522667 0 0 3.264-1.642667 71.808-27.925333m148.586667-678.464c-43.093333-20.117333-94.4-17.642667-151.850667 6.976-98.517333 42.282667-157.632 68.544-193.749333 84.970667-0.810667 28.736-24.213333 52.117333-52.949333 52.117333a53.248 53.248 0 0 1-53.333334-53.333333 53.248 53.248 0 0 1 53.333334-53.376c9.856 0 19.306667 2.88 27.093333 7.786666 36.117333-16.426667 96.469333-43.498667 198.656-86.997333 72.661333-31.210667 137.92-32.021333 195.797333-6.165333 103.018667 45.973333 137.898667 174.848 139.541334 179.776l-55.808 0.426666c-0.426667-0.853333-30.378667-96.469333-106.730667-132.181333M665.088 154.176c-27.904-13.546667-59.925333-33.237333-121.493333-60.757333l66.901333-28.309334c38.592 17.237333 56.64 30.784 77.568 41.045334 8.618667-5.76 18.88-9.024 29.973333-9.024a53.248 53.248 0 0 1 53.354667 53.333333 53.248 53.248 0 0 1-53.354667 53.376 53.632 53.632 0 0 1-52.949333-49.664M418.005333 44.586667c-57.877333-24.618667-105.493333-26.261333-148.586666-6.570667-76.757333 35.712-106.304 131.349333-106.730667 132.16l-55.808-0.405333c1.642667-4.906667 36.522667-133.802667 139.541333-179.776 57.877333-25.856 123.562667-24.618667 195.797334 6.165333 17.642667 7.381333 31.594667 13.546667 47.616 20.522667 0.405333 0-2.88 1.216-71.829334 27.904"  horiz-adv-x="1024" />

    
    <glyph glyph-name="minus-bold" unicode="&#59122;" d="M960 304h-896v160h896v-160z"  horiz-adv-x="1024" />

    
    <glyph glyph-name="anzhuo" unicode="&#58882;" d="M963.615 548.916q23.342 0 39.58-14.716t16.238-36.028v-299.385q0-20.297-16.238-35.013t-39.58-14.716h-18.267q-23.342 0-39.58 14.716t-16.238 35.013V498.172q0 21.313 16.238 36.028t39.58 14.716h18.267z m-823.056 0q23.342 0 38.565-14.716t15.223-36.028v-299.385q0-20.297-15.223-35.013t-38.565-14.716h-18.268q-23.342 0-39.58 14.716t-16.237 35.013V498.172q0 21.313 16.238 36.028t39.58 14.716h18.267z m560.206 235.449q18.268-8.12 38.058-22.327t38.057-33.49 31.968-42.118 19.79-48.206H252.194q16.238 53.788 51.251 88.293t70.533 54.803L322.22 862.51q-2.03 2.03-0.507 7.61t10.656 11.672q8.119 7.104 15.223 6.597t9.133-2.538L409.5 802.632q28.416 13.194 59.877 20.298t64.951 7.104q69.011 0 128.888-28.417l53.788 84.234q2.03 2.03 7.611 2.03t16.746-6.09q10.148-5.073 11.67-9.133t-0.507-6.09z m-283.148-87.279q13.194 0 22.327 9.134t9.134 22.327-9.134 22.327-22.327 9.134-22.327-9.134-9.133-22.327 9.133-22.327 22.327-9.134z m249.658 4.06q13.193 0 22.327 9.133t9.133 22.328-9.133 22.327-22.327 9.133-22.328-9.133-9.133-22.327 9.133-22.328 22.328-9.133z m161.363-126.859l1.015-456.69q0-22.326-14.715-37.55t-36.028-15.222h-14.208v-142.082q0-20.297-14.716-35.52T713.958-128h-29.43q-20.298 0-35.014 15.223t-14.715 35.52V64.825H448.063v-142.082q0-20.297-14.715-35.52T397.32-128H367.89q-20.297 0-35.013 15.223t-14.715 35.52V64.825h-11.164q-21.312 0-36.028 15.223t-14.715 37.55v456.69h572.384z"  horiz-adv-x="1024" />

    
    <glyph glyph-name="zhengfujiguan" unicode="&#58906;" d="M1503.524 903.584v-183.229c-17.040-4.511-32.276-6.515-46.509-6.515-9.121 0-20.448 1.303-33.278 4.31-56.357 13.415-105.926 32.613-151.965 57.505 93.528-41.468 78.593-37.659 64.761-34.151-11.705 2.916-25.157 4.62-38.997 4.682-0.395-0.071-7.712-1.174-17.736-3.58-27.701-6.453-52.14-16.358-74.487-29.448l13.945 9.501c-6.215-2.205-10.825-2.807-14.935-3.508v-803.383h-43.502v1022.897h43.502v-33.478c35.383 14.133 68.661 21.651 99.834 21.651 9.422 0 20.348-1.604 33.579-4.811 13.131-3.007 27.364-6.515 42.6-11.327 15.637-4.611 29.67-8.821 43.301-11.527 10.126-3.147 21.767-4.959 33.832-4.959 16.636 0 32.467 3.446 46.819 9.664zM0 427.168v-503.179h350.421v91.214h322.155v-91.214h354.832v503.179h-1027.408zM487.643 750.926c-71.032-6.146-134.13-35.966-182.312-81.426-43.902-37.691-80.92-103.642-90.396-178.191s-41.829 36.192-41.829-16.13h684.204c0 46.609-51.421 44.504-51.421 44.504-15.887 73.087-58.010 134.353-115.793 174.764-29.481 27.479-93.925 54.558-164.616 57.26l-37.837-0.782z"  horiz-adv-x="1505" />

    
    <glyph glyph-name="sanjiaoleft" unicode="&#58913;" d="M639.955 383.998l-255.91 191.442v-382.883l255.911 191.439z"  horiz-adv-x="1024" />

    
    <glyph glyph-name="medal" unicode="&#59274;" d="M792.1 305.5l-2.4-2.1 3.1-69.3 78.6-78.6-81.8-45.4-6.9-12.5-38.5-69.3-112.2 112.1 165.4-7.4-7.6 170.3 125.8 115.1-125.8 115.1 7.6 170.3-170.3-7.6-115.1 125.8-115.1-125.8-170.3 7.6 7.6-170.3-125.8-115.1 125.8-115.1-7.6-170.3 165.4 7.4-112.1-112.2-38.5 69.3-6.9 12.5-12.5 6.9-69.3 38.5 78.6 78.6 3.1 69.3-2.4 2.1-161.6-161.4 127.3-70.7 70.6-127.3 160.1 160.1-31.5 34.5 115.1-125.7 83.5 91.3 160.2-160.2 70.7 127.3 127.2 70.7-161.5 161.5zM512 88.9l-94 102.6-139-6.1 5.1 115.7 1 23.3-17.1 15.9-85.4 78.2 102.6 94-1 23.3-5.2 115.6 139-6.1 15.8 17.2 78.2 85.4 94-102.6 139 6.1-5.1-115.7-1-23.3 17.2-15.8 85.4-78.2-102.7-93.9 1-23.3 5.1-115.7-139 6.1-15.8-17.2-78.1-85.5z"  horiz-adv-x="1024" />

    
    <glyph glyph-name="zixun" unicode="&#58947;" d="M959.9 705.6c-0.1 44.2-4.7 78.2-26.8 100.3-22 22.1-55.9 26.8-100 26.9-158.6 0.6-321.2 0.6-497.3 0-46.3-0.2-77.6-10.2-98.5-31.6-15.1-15.4-24-36.1-27.3-63.7h-0.1c-58.9 2.3-97 1.4-120.4-21.5-25.4-24.7-26-67.6-24.8-135.7 1.8-107.9 1.4-217.7 1.1-324-0.2-63.6-0.4-129.3-0.2-194 0.2-44.2 4.8-78.2 26.8-100.3 22.1-22.2 55.9-26.8 100-26.9 107-0.3 213.3-0.5 318.4-0.5 105.9 0 210.4 0.2 312.8 0.5 37.7 0.1 79.9 3.8 106.2 30.3 21 21 30 52.9 30.1 106.5 0.6 204.8 0.6 418 0 633.7zM916 72.2c-0.1-40.4-5.5-63.8-17.4-75.7-11.9-11.9-35.1-17.3-75.3-17.4-203.9-0.6-416.1-0.6-630.8 0-38.8 0.1-59.4 4.3-69.1 14-9.7 9.7-13.9 30.5-14 69.5-0.2 64.5 0 130.2 0.2 193.7 0.4 106.4 0.7 216.5-1.1 324.8-0.9 53.2-0.6 91.7 11.6 103.5 7.9 7.6 26.9 9.9 53.8 9.9 10.5 0 22.2-0.3 34.9-0.8l0.1-0.1c2.6-133.4 4.8-268.8 6.9-399.8l2.7-164.5c0.2-12 10-21.6 21.9-21.6h0.4c12.1 0.2 21.8 10.2 21.6 22.3-0.9 54.8-1.8 109.6-2.7 164.5-2.2 134.8-4.4 274.3-7.1 411.4-0.6 32.1 4.5 52.6 16.3 64.7 12 12.2 34 18.2 67.3 18.4 176 0.6 338.5 0.6 497 0 38.8-0.2 59.5-4.4 69.1-14 9.7-9.7 13.9-30.5 14-69.5 0.3-215.7 0.3-428.7-0.3-633.3zM803.7 391.5H364.5c-12.4 0-22.3-10.2-21.9-22.7 0.4-11.9 10.6-21.2 22.5-21.2h439.2c12.4 0 22.3 10.2 21.9 22.7-0.4 12-10.6 21.2-22.5 21.2zM803.7 276.4H364.5c-12.4 0-22.3-10.2-21.9-22.7 0.4-11.9 10.6-21.2 22.5-21.2h439.2c12.4 0 22.3 10.2 21.9 22.7-0.4 11.9-10.6 21.2-22.5 21.2zM803.7 161.2H364.5c-12.4 0-22.3-10.2-21.9-22.7 0.4-11.9 10.6-21.2 22.5-21.2h439.2c12.4 0 22.3 10.2 21.9 22.7-0.4 11.9-10.6 21.2-22.5 21.2zM803.7 698.6H670.5c-12.4 0-22.3-10.2-21.9-22.7 0.4-11.9 10.6-21.2 22.5-21.2h133.3c12.4 0 22.3 10.2 21.9 22.7-0.5 12-10.7 21.2-22.6 21.2zM803.7 602.7H670.5c-12.4 0-22.3-10.2-21.9-22.7 0.4-11.9 10.6-21.2 22.5-21.2h133.3c12.4 0 22.3 10.2 21.9 22.7-0.5 11.9-10.7 21.2-22.6 21.2zM803.7 506.7H670.5c-12.4 0-22.3-10.2-21.9-22.7 0.4-11.9 10.6-21.2 22.5-21.2h133.3c12.4 0 22.3 10.2 21.9 22.7-0.5 11.9-10.7 21.2-22.6 21.2zM549 458.4c26.1 0 47.3 21.2 47.3 47.3V664c0 26.1-21.2 47.3-47.3 47.3H355.6c-26.1 0-47.3-21.2-47.3-47.3v-158.3c0-26.1 21.2-47.3 47.3-47.3H549z m-196.8 47.3V664c0 1.9 1.5 3.4 3.4 3.4H549c1.9 0 3.4-1.5 3.4-3.4v-158.3c0-1.9-1.5-3.4-3.4-3.4H355.6c-1.9 0-3.4 1.5-3.4 3.4z"  horiz-adv-x="1024" />

    
    <glyph glyph-name="zhishichanquan" unicode="&#58891;" d="M948.352 246.976C708.224 234.368 512 94.272 512 50.944c0 43.328-196.224 183.424-436.288 196.032a41.6 41.6 0 0 1-43.712-41.6v-38.912a41.6 41.6 0 0 1 39.424-41.536c178.496-9.344 303.296-80.768 373.376-134.912 27.456-21.248 67.2-62.144 67.2-62.144s39.744 40.896 67.2 62.08c70.144 54.208 194.944 125.568 373.376 134.912a41.6 41.6 0 0 1 39.424 41.536v38.912a41.6 41.6 0 0 1-43.648 41.664z m0 0M357.888 358.72a31.168 31.168 0 0 1-1.6-9.856v-34.368c0-17.344 14.08-31.36 31.424-31.36h252.032c17.344 0 31.424 14.08 31.424 31.36v34.368a31.744 31.744 0 0 1-2.304 11.84 265.344 265.344 0 1 1-310.976-1.984z m38.08 283.072a25.408 25.408 0 0 0 36.032 0L512 561.728l80.064 80a25.408 25.408 0 1 0 36.032-36.032L537.472 515.2v-162.88a25.472 25.472 0 0 0-50.88 0V515.2L395.968 605.76a25.536 25.536 0 0 0 0 36.032z m0 0M381.76 256.768a23.296 23.296 0 0 1 0-46.592h263.936a23.296 23.296 0 0 1 0 46.592H381.76z m0 0"  horiz-adv-x="1024" />

    
    <glyph glyph-name="idea" unicode="&#59301;" d="M695.466667-55.466667h-298.666667c-12.8 0-21.333333 8.533333-21.333333 21.333334v149.333333h-106.666667c-12.8 0-21.333333 8.533333-21.333333 21.333333v151.466667l-85.333334 38.4c-10.666667 4.266667-14.933333 17.066667-10.666666 27.733333l53.333333 117.333334v6.4c0 200.533333 149.333333 362.666667 330.666667 362.666666s330.666667-162.133333 330.666666-362.666666c0-123.733333-55.466667-236.8-149.333333-302.933334v-209.066666c0-12.8-8.533333-21.333333-21.333333-21.333334z m-277.333334 42.666667h256v198.4c0 6.4 2.133333 12.8 8.533334 17.066667l8.533333 6.4c83.2 59.733333 132.266667 160 132.266667 268.8 0 177.066667-130.133333 320-288 320s-288-142.933333-288-320v-10.666667c0-2.133333 0-6.4-2.133334-8.533333l-46.933333-102.4 78.933333-36.266667c8.533333-4.266667 12.8-10.666667 12.8-19.2v-142.933333h106.666667c12.8 0 21.333333-8.533333 21.333333-21.333334v-149.333333zM588.8 390.4h-128v57.6c-51.2 25.6-85.333333 76.8-85.333333 134.4 0 83.2 66.133333 149.333333 149.333333 149.333333s149.333333-66.133333 149.333333-149.333333c0-57.6-34.133333-110.933333-85.333333-134.4v-57.6z m-85.333333 42.666667h42.666666v40.533333l23.466667 10.666667c36.266667 17.066667 61.866667 55.466667 61.866667 96 0 59.733333-46.933333 106.666667-106.666667 106.666666s-106.666667-46.933333-106.666667-106.666666c0-40.533333 23.466667-78.933333 61.866667-96l23.466667-10.666667v-40.533333zM503.466667 614.4v21.333333c0 6.4 4.266667 10.666667 10.666666 10.666667h21.333334c6.4 0 10.666667-4.266667 10.666666-10.666667v-21.333333c0-6.4-4.266667-10.666667-10.666666-10.666667h-21.333334c-6.4 0-10.666667 4.266667-10.666666 10.666667z m53.333333-10.666667h21.333333c6.4 0 10.666667-4.266667 10.666667-10.666666v-21.333334c0-6.4-4.266667-10.666667-10.666667-10.666666h-21.333333c-6.4 0-10.666667 4.266667-10.666667 10.666666v21.333334c0 6.4 4.266667 10.666667 10.666667 10.666666z m-10.666667-53.333333v-21.333333c0-6.4-4.266667-10.666667-10.666666-10.666667h-21.333334c-6.4 0-10.666667 4.266667-10.666666 10.666667v21.333333c0 6.4 4.266667 10.666667 10.666666 10.666667h21.333334c6.4 0 10.666667-4.266667 10.666666-10.666667z m-53.333333 10.666667h-21.333333c-6.4 0-10.666667 4.266667-10.666667 10.666666v21.333334c0 6.4 4.266667 10.666667 10.666667 10.666666h21.333333c6.4 0 10.666667-4.266667 10.666667-10.666666v-21.333334c0-6.4-4.266667-10.666667-10.666667-10.666666zM524.8 539.733333c-23.466667 0-42.666667 19.2-42.666667 42.666667s19.2 42.666667 42.666667 42.666667 42.666667-19.2 42.666667-42.666667-19.2-42.666667-42.666667-42.666667z m0 64c-12.8 0-21.333333-8.533333-21.333333-21.333333s8.533333-21.333333 21.333333-21.333333 21.333333 8.533333 21.333333 21.333333-8.533333 21.333333-21.333333 21.333333zM652.8 401.066667c-17.066667 0-32-14.933333-32-32v-53.333334c0-23.466667-19.2-42.666667-42.666667-42.666666s-42.666667 19.2-42.666666 42.666666v10.666667h10.666666c23.466667 0 42.666667 19.2 42.666667 42.666667v64h-128v-64c0-23.466667 19.2-42.666667 42.666667-42.666667h10.666666v-10.666667c0-36.266667 27.733333-64 64-64s64 27.733333 64 64v53.333334c0 6.4 4.266667 10.666667 10.666667 10.666666s10.666667-4.266667 10.666667-10.666666v-42.666667c0-6.4 4.266667-10.666667 10.666666-10.666667s10.666667 4.266667 10.666667 10.666667v42.666667c0 17.066667-14.933333 32-32 32z m-149.333333-10.666667h42.666666v-21.333333h-42.666666v21.333333z"  horiz-adv-x="1024" />

    
    <glyph glyph-name="wulianwang" unicode="&#58992;" d="M532.038 895.59c-72.843 2.902-147.462-9.781-219.07-40.003-71.612-30.223-132.753-74.836-181.491-129.051 72.432 1.391 145.775 16.28 216.488 46.125C418.679 802.506 480.512 844.665 532.038 895.59zM441.627 550.734c140.577 59.33 256.27 153.169 341.414 267.521a514.78 514.78 0 0 1-132.678 58.566 690.967 690.967 0 0 0-37.939-42.388c-64.186-66.02-140.084-117.793-225.586-153.878-85.501-36.086-175.545-54.347-267.624-54.274a690.536 690.536 0 0 0-56.838 2.386 514.877 514.877 0 0 1-50.598-135.916c141.329-18.772 289.272-1.346 429.849 57.983zM535.289 328.808c169.034 71.339 310.196 181.335 417.572 315.38-25.017 42.507-55.54 80.322-90.25 112.904a928.479 928.479 0 0 0-77.503-90.688c-86.659-89.14-189.144-159.047-304.608-207.777-115.463-48.729-237.044-73.388-361.367-73.29A929.085 929.085 0 0 0 0.091 393.072a508.255 508.255 0 0 1 17.933-143.423c170.947-16.582 348.231 7.821 517.265 79.159zM998.663 542.69a1163.002 1163.002 0 0 0-40.869-44.315c-109.135-112.26-238.211-200.3-383.632-261.674-145.423-61.376-298.545-92.431-455.112-92.308a1159.323 1159.323 0 0 0-60.26 1.633c28.541-54.499 65.835-101.974 109.398-141.4 154.353 5.572 310.229 38.724 460.763 102.255 150.535 63.533 283.03 152.085 394.704 258.787 2.141 58.714-5.854 118.554-24.992 177.022zM305.351-84.291c124.479-54.902 270.44-60.368 405.675-3.294 135.234 57.073 233.14 165.464 280.646 292.949-98.29-77.292-206.657-141.131-323.847-190.59-117.19-49.456-238.526-82.564-362.474-99.065z"  horiz-adv-x="1024" />

    
    <glyph glyph-name="goutongnengli--" unicode="&#58904;" d="M886.7 252.6c14.1-7.5 27.3-16.2 38.4-27.8 20.3-21.2 32.5-46.4 36.6-75.4 0.1-1-0.5-2.3 1-2.8V117c-1.1-9.3-2.4-18.5-5.7-27.4-19.9-52.8-57.4-83.6-113.6-90.5-33.1-4-63.4 4.7-90.8 23.5-3.1 2.2-6.2 4.4-9 7.1-9.6 7.8-17.6 17.2-24.8 27.2-16.7 24.5-24.4 51.8-23 81.3 1.3 29.6 11.4 56.3 30.5 79.3 22.1 26.4 50.1 42.2 84.2 47.5 8.4 1.3 16.8 1.7 25.2 1.5 16-1.2 31.6-4.1 46.4-10.7 1.7-0.9 3.7-1.4 4.6-3.2zM723.6 17.3c5.3-13.4 2.5-21.4-10.1-28.6-50.2-28.5-104-45.6-161.5-50.9-3.9-0.4-8.1 0.3-11.9-1.7h-3.8c-1 0.7-1.9 0.7-2.9 0h-4.8c-1.5 1-3.2 0.3-4.8 0.5-1.6-0.2-3.3 0.5-4.8-0.5h-10.5c-2.4 1.1-5 0.2-7.5 0.5-2-0.3-4 0.5-5.9-0.5h-12.4c-3.6 2-7.6 1.4-11.4 1.7-57.4 4.6-110.8 21.3-159.5 52.6-11.7 7.6-14.2 16.4-8 28.8 0.1 2.6 1.9 3.9 3.7 5.2 7.1 5.1 16.3 5.1 24.2 0.1 17.1-10.8 35-20.3 54-27.6 25.1-9.7 51.1-15.7 77.9-18.6 21.9-2.4 43.8-3.6 65.8-2.6 33.1 1.4 65.5 6.9 97 17.4 22.8 6.8 44.1 17 64.9 28.3 5.7 3.1 11.3 6.7 18.3 5.5 6.3-0.8 11.9-2.8 14-9.6zM500.9-63c2.6-0.2 5.3 1 7.7-0.9H501c-0.3 0.2-0.4 0.4-0.3 0.6 0 0.2 0.1 0.3 0.2 0.3zM500.9-63c0-0.3 0.1-0.6 0.1-0.9h-5.7c1.5 2 3.7 0.6 5.6 0.9zM519.1-63.8c1.4 1.6 3.2 0.7 4.8 0.9 0.3-0.2 0.4-0.4 0.3-0.6-0.1-0.2-0.2-0.3-0.3-0.3h-4.8zM523.9-63.8c0 0.3 0 0.6 0.1 0.9 1.6-0.2 3.4 0.8 4.7-0.9h-4.8zM533.5-63.8c1 1.4 1.9 1.6 2.9 0h-2.9zM627.1-7.6c-20.9-7.7-42.5-12.1-64.4-14.9-39.7-5.1-79.4-3.9-119 2.4-40.1 6.5-77.1 21.1-111.3 42.9-11 7-19.7 5.9-28.5-3.5-6.5 4.7-13.4 8.8-19.3 14.3-0.2 2.4 1.7 3.7 3.1 5.1 20.6 20.7 33.4 45.3 37.4 74.2 5.3 38.4-4 73-28.8 103.1-21.5 26.1-49.2 41.3-82.6 46.4-21.9 3.3-43.2 0.8-63.9-6.6-2-0.7-4-2.3-6.3-0.9-1.3 7.2-2.7 14.5-4 21.7 1 2.2 3.2 2.5 5 3.3 6.6 3.1 9.7 8.4 10 15.6 0.3 5.9-0.6 11.8-1.1 17.6-1.6 20.4-0.5 40.7 1 61 2.4 32.3 8.8 63.7 19.3 94.3 13.1 38.1 32.7 72.6 59.5 102.7 26.8 30.2 58.5 54.3 94.6 72.5 4.4 2.2 8.9 4.3 13.2 6.7 10 5.6 13 14.1 8.8 24.6-0.5 1.2-1.1 2.3-0.6 3.7 11 4.6 21.8 9.9 33.1 13.8 2.2-2.7 1.9-6 2.2-9.1 5.7-60.7 53.6-110.5 113.9-117.5 44.8-5.2 83 8.8 113.9 41.5 14.7 15.5 24.7 33.9 30.2 54.7 0.6 2.4 0.7 5.1 2.9 6.9 2.3 0.8 4-0.4 5.8-1.5 22.6-13 43.6-28.1 63.2-45.3 33.8-29.8 61.5-64.4 83.1-104 20.8-38.1 34.5-78.7 41.4-121.5 4.1-25.1 5.7-50.3 4.7-75.6-0.7-17.1-2.3-34.3-5.6-51.2-0.3-1.8-0.7-3.4-2.2-4.6-23.4 0.4-45.8-4.1-66.7-14.9-48.3-25-76.4-76.7-71.3-130.9 2.2-22.8 10.2-43.4 22.5-62.5 0.4-2.1-1.2-3.1-2.5-4.3-22.5-20.1-46.9-37.4-73.3-52.1-5.7-3.2-11.7-5.3-17.4-8.1zM645.4 668.5c-6.2-27.1-18.8-50.7-39.5-69.3-38.1-34.2-82.4-44.9-131.2-29.2-48.3 15.5-77.9 49.7-89.5 99.2-1.8 7.6-2.3 15.4-2.9 23.2-0.2 22.8 4.4 44.5 14.9 64.8 25.9 50 81.2 78.8 136.2 70.8 57.2-8.3 102-51.1 112.6-107.6 1.7-9.2 2.2-18.6 2.3-28 2.4-5.1 0-10.2-0.2-15.3-0.2-3.1-0.3-6.2-2.7-8.6zM143.5 254.8c17.9 7.1 36.5 10.7 55.9 10.2 62.3-1.4 117.6-49.8 126.7-111.1 6.8-46-6.6-85.4-39.6-118.1-0.7-0.7-1.2-1.4-1.9-2.1-13.7-11.5-28.7-21-45.7-26.9-78-27.3-162.1 22.8-175 104.4C54.5 170.4 85.3 228 139.7 253c1.2 0.5 2.5 1.2 3.8 1.8zM349.2 678.5c7.5-12.2 4.1-23.8-8.8-30-45.5-21.6-85-51-116.5-90.7-32.7-41.2-52.4-88.3-62.3-139.7-7-36.6-9.3-73.5-6.7-110.7 0.1-1.7 0.3-3.5 0.5-5.2 1.7-14.3-2.5-21-16-25.7-14.6 0.4-20.7 6.7-22 22.4-4.6 53-0.8 105.3 13.6 156.6 29.7 105.6 95 181.3 194 228.1 9.1 4.3 16.4 2.6 24.2-5.1zM679.6 679c8.3 11.3 17 13.4 29.2 6.4 100-57.3 165.1-141.5 194.2-253 11.3-43.5 14.4-87.8 10.1-132.6-1.2-12.5-8.1-18.5-21.3-18.9-4.5-1.6-7.8 1.2-10.8 3.5-5.5 4.3-7.9 10.5-7.4 17.3 1.4 18.6 2 37.1 0.9 55.7-1.4 23-4.8 45.6-10.5 67.8-13.6 53.3-38.1 100.8-73.5 142.8-29 34.4-63.3 62.1-102.5 83.9-8.3 4.6-12 11.5-11.2 20.9 0.1 2.4 0.4 4.8 2.8 6.2zM679.6 679c-4.2-12.6-1.1-20.3 10.6-27 94.2-54.2 154.1-134.1 178.3-240.1 8.2-35.9 10.1-72.5 6.5-109.2-1-11 5.2-19.2 16.8-21.8-1.7-9.5-3.5-18.9-5.2-28.4-12.1 5-24.4 9.3-37.5 11-4.5 0.6-9.1 1-13.6 1.5 2.2 11.2 3.8 22.5 4.8 33.9 1.4 14.7 2.1 29.5 1.8 44.3-1 43.5-9 85.7-24.3 126.5-13.2 35.3-31.3 67.8-54.3 97.6-22.7 29.5-49.2 55.3-79.4 77.1-10.8 7.8-22.1 15-33.6 21.8-1.6 0.9-3.5 1.6-5.2 2.3 1.4 7.9 2.3 15.8 2.9 23.8 10.8-3.9 21.2-8.4 31.4-13.3zM924.5 132c-0.1-52.2-42.7-94.6-95-94.5-52 0.1-94.3 42.7-94.3 94.8 0.1 52.2 42.7 94.6 95 94.5 52-0.1 94.3-42.7 94.3-94.8zM627.1-7.6c6.3 4.6 13.6 7.3 20.3 11.2 23.7 13.6 46.1 29.1 66.4 47.4 2.1 1.9 4.7 3.2 6.2 5.8 7-9.3 14.6-18 23.2-25.7-6.6-4.6-13.1-9.2-19.7-13.7-9 10.2-17 11.5-29 4.6-20.5-11.7-41.8-21.4-64.2-28.8-1-0.4-2.1-0.6-3.2-0.8zM200.8 349.8c1.1 51.6 10.1 101.5 33.3 148.1 4.4 8.8 9.3 17.4 14.9 25.6 3.1 4.5 7.1 5.7 11 3.4 4-2.4 4.8-7.1 1.8-11.6-25.1-38.2-37.5-80.7-43-125.7-2.1-17.1-3-34.2-2.6-51.4 0.1-6.3-2.4-9.8-7-10-4.7-0.2-8.1 3.7-8.2 9.7v1.4c-0.2 3.4-0.2 7-0.2 10.5zM359 606.4c4.3-0.3 7.1-2.3 7.9-6.1 0.8-3.9-0.8-7-4.5-8.5-5-2.1-10.1-3.7-15.1-5.8-13.6-5.6-26.3-12.8-38.3-21.3-4.9-3.5-9.5-3.1-12.2 0.7-2.7 3.8-1.6 8 3.1 11.4 17.2 12.6 36.1 22 56.2 28.8 1.1 0.4 2.2 0.6 2.9 0.8zM609.9 696.3c0-52.3-42.5-94.8-94.8-94.7-52 0-94.5 42.5-94.5 94.6 0 52.3 42.5 94.8 94.8 94.7 52.1-0.1 94.5-42.6 94.5-94.6zM100.4 132.1c0 52.3 42.5 94.8 94.8 94.7 52 0 94.5-42.5 94.5-94.6 0-52.3-42.5-94.8-94.8-94.7-52.1 0-94.5 42.5-94.5 94.6z"  horiz-adv-x="1024" />

    
    <glyph glyph-name="-" unicode="&#58905;" d="M71.2 158.3h180.9v-180.9H71.2zM260.1-30.6H63.2V166.3h196.9v-196.9z m-180.9 16h164.9V150.3H79.2v-164.9zM422.1 158.3H603v-180.9H422.1zM611-30.6H414.1V166.3H611v-196.9z m-180.9 16H595V150.3H430.1v-164.9zM771.9 158.3h180.9v-180.9H771.9zM960.8-30.6H763.9V166.3h196.9v-196.9z m-180.9 16h164.9V150.3H779.9v-164.9zM504.5 498.9h16v-333.5h-16zM153.6 163.4h16v-8h-16zM169.6 179.8h-16v16.3h16v-16.3z m0 32.7h-16v16.3h16v-16.3z m0 32.7h-16v16.3h16v-16.3z m0 32.7h-16v16.3h16v-16.3z m0 32.6h-16v16.3h16v-16.3z m0 32.7h-16v16.3h16v-16.3zM153.6 391.9h16v-16h-16zM840 375.9h-16v16h16v-16z m-31.9 0h-16v16h16v-16z m-32 0h-16v16h16v-16z m-31.9 0h-16v16h16v-16z m-31.9 0h-16v16h16v-16z m-31.9 0h-16v16h16v-16z m-31.9 0h-16v16h16v-16z m-32 0h-16v16h16v-16z m-31.9 0h-16v16h16v-16z m-31.9 0h-16v16h16v-16z m-31.9 0h-16v16h16v-16z m-32 0h-16v16h16v-16z m-31.9 0h-16v16h16v-16z m-31.9 0h-16v16h16v-16z m-31.9 0h-16v16h16v-16z m-31.9 0h-16v16h16v-16z m-32 0h-16v16h16v-16z m-31.9 0h-16v16h16v-16z m-31.9 0h-16v16h16v-16z m-31.9 0h-16v16h16v-16z m-31.9 0h-16v16h16v-16zM855.9 391.9h16v-16h-16zM871.9 179.8h-16v16.3h16v-16.3z m0 32.7h-16v16.3h16v-16.3z m0 32.7h-16v16.3h16v-16.3z m0 32.7h-16v16.3h16v-16.3z m0 32.6h-16v16.3h16v-16.3z m0 32.7h-16v16.3h16v-16.3zM855.9 163.4h16v-8h-16zM655.6 679.3c0-79-143-184.8-143-184.8s-143 105.8-143 184.8 64 143 143 143 143-64 143-143zM512.5 484.5l-4.8 3.5c-6 4.4-146.3 109.2-146.3 191.3 0 83.3 67.8 151 151 151 83.3 0 151-67.8 151-151 0-82.1-140.3-186.8-146.3-191.3l-4.6-3.5z m0 329.8c-74.5 0-135-60.6-135-135 0-30.2 23.9-70.4 69.2-116.4 27.4-27.8 55-50 65.8-58.3 10.8 8.4 38.6 30.6 66 58.5 45.2 45.9 69.1 86.2 69.1 116.3 0 74.3-60.6 134.9-135.1 134.9zM116.7 112.8h89.9v-89.9h-89.9zM467.6 112.8h89.9v-89.9h-89.9zM819 112.8h89.9v-89.9H819zM836.7 409.4h50.9v-50.9h-50.9zM895.6 350.5h-66.9v66.9h66.9v-66.9z m-50.9 16h34.9v34.9h-34.9v-34.9zM130 409.4h50.9v-50.9H130zM188.9 350.5H122v66.9h66.9v-66.9z m-50.9 16h34.9v34.9H138v-34.9z"  horiz-adv-x="1024" />

    
    <glyph glyph-name="yunjisuan" unicode="&#58892;" d="M451.1-3.7c8.1 38.7 42.4 67.7 83.5 67.7s75.4-29 83.5-67.7H912v-42.7H616.2c-10.7-34.9-43.2-60.3-81.6-60.3-38.4 0-70.9 25.4-81.6 60.3H352.4v42.7h98.7z m-197 128.3h172.6v-42.7H252.4c-10.6-35.1-43.2-60.6-81.7-60.6-47.1 0-85.3 38.2-85.3 85.3s38.2 85.3 85.3 85.3c40.9 0.1 75.2-28.8 83.4-67.3z m373.2 274.9c-18.4 15.7-30 38.9-30 65 0 47.1 38.2 85.3 85.3 85.3 10.7 0 20.9-2 30.3-5.5 24.7 49.9 20.7 108.1-10.8 158.2-36.6 58.3-104.6 97.5-190 103.7-84.3 6.2-162.5-23.7-222.5-79.3-52.8-48.9-85.2-113.1-86-166.2 30.4-5.3 59.6-16.3 82.7-31.5 15 12.9 34.4 20.7 55.7 20.7 47.1 0 85.3-38.2 85.3-85.3s-38.2-85.3-85.3-85.3-85.3 38.2-85.3 85.3c0 10.4 1.9 20.4 5.3 29.6-31.6 20.5-80.4 31.9-121.3 25.6-25.2-3.9-45.8-14.1-60.3-30.2C64 471.3 55 444.8 55 409.3c0-63.2 29.4-97.2 93.7-115.2 29.8-8.4 66.9-13.2 114.5-15.4 37.1-1.7 68.4-1.9 145.8-1.4 28.5 0.2 42.5 0.3 59.2 0.3h0.7c59.2-0.3 111.8 39.4 158.4 121.9z m38.5-18.7c-24.9-44.6-52.3-79.2-82.2-103.5h212.1c62.5 0 104.7 22.1 131.1 61.1 20.3 30 30.1 69.2 30.1 105.3 0 52.6-15.7 96.5-45.8 127.2-31.3 31.9-78.1 49.8-139.7 50.9 1.6-35.2-6-70.3-23.4-102.5 12.4-14.8 19.9-33.9 19.9-54.8 0-47.1-38.2-85.3-85.3-85.3-5.7 0-11.4 0.5-16.8 1.6zM469.1 234.7c-16.9 0-30.8-0.1-59.6-0.3-78.3-0.5-110-0.3-148.1 1.4-50.6 2.4-90.6 7.6-124.1 17-81.8 23-124.9 72.8-124.9 156.3 0 45.6 12.5 82.2 36.3 108.8 21.5 24 51.1 38.6 85.5 43.9 8.7 1.4 17.7 2.1 26.8 2.2 2 65 39.6 138.5 99.6 194.1C329 821.5 418.7 855.7 515.2 848.7c98.6-7.2 179-53.5 223-123.6 12.1-19.3 21-39.7 26.5-60.6h0.4c75.6 0 135.5-22.1 176.4-63.8 38.4-39.2 58-93.9 58-157 0-43.9-11.9-91.3-37.5-129.2-34.4-50.8-89.9-79.9-166.5-79.9H469.1z m164.7-152.8v42.7h107.5v-42.7H633.8zM342.1 421.8c23.6 0 42.7 19.1 42.7 42.7s-19.1 42.7-42.7 42.7-42.7-19.1-42.7-42.7c0.1-23.6 19.2-42.7 42.7-42.7z m340.6 0c23.6 0 42.7 19.1 42.7 42.7s-19.1 42.7-42.7 42.7-42.7-19.1-42.7-42.7 19.1-42.7 42.7-42.7zM534.6-64c23.6 0 42.7 19.1 42.7 42.7s-19.1 42.7-42.7 42.7-42.7-19.1-42.7-42.7S511-64 534.6-64zM170.7 64c23.6 0 42.7 19.1 42.7 42.7s-19.1 42.7-42.7 42.7-42.7-19.2-42.7-42.7 19.1-42.7 42.7-42.7z"  horiz-adv-x="1024" />

    
    <glyph glyph-name="anquan" unicode="&#59238;" d="M376.8 459.8h270.5c9 0 16.3-7.3 16.3-16.3v-68.4c0-9-7.3-16.3-16.3-16.3H376.8c-9 0-16.3 7.3-16.3 16.3v68.4c0 9 7.3 16.3 16.3 16.3zM477.9 560.8h68.4c9 0 16.3-7.3 16.3-16.3V274c0-9-7.3-16.3-16.3-16.3h-68.4c-9 0-16.3 7.3-16.3 16.3V544.5c0 9 7.3 16.3 16.3 16.3zM512.1-96C299-96 82.6 212.7 82.6 434.5V687.2c0 21.8 13.9 41.1 34.6 47.9L496.1 861.4c10.4 3.5 21.6 3.5 31.9 0l379-126.3c20.6-6.9 34.6-26.2 34.6-47.9v-252.6c0-221.9-216.5-530.6-429.5-530.6zM183.7 650.7v-216.2C183.7 253.9 374 5 512.1 5c141.2 0 328.4 244.8 328.4 429.5V650.7L512.1 760.2 183.7 650.7z"  horiz-adv-x="1024" />

    
    <glyph glyph-name="renlianshibie" unicode="&#58888;" d="M843.573754 416.53924v23.208996c0 204.21584-134.588852 315.595696-301.716949 315.595696s-301.716949-111.379856-301.716949-315.595696v-32.539246c0-9.33025 0-13.878746 4.665124-18.543871 18.660499-190.337094 143.919101-375.892434 297.051825-375.892434S820.364758 203.109778 838.908629 388.665119c4.665125 9.33025 4.665125 13.878746 4.665125 18.543871v9.33025z m-278.507953-78.957238V476.835979c143.919101-4.665125 222.759711-41.752867 232.089961-64.961864v-4.665125c-9.213622-27.874121-88.17086-64.961863-232.089961-69.626988z m-273.7262 64.961863v9.33025c9.33025 23.208996 88.17086 60.296739 227.424836 64.961864v-139.253977c-134.70548 4.665125-218.211215 41.752867-227.424836 64.961863z m501.151036 69.626989c-51.083117 27.874121-139.253977 46.417992-227.424836 46.417992V708.92594c130.040355-9.33025 218.211215-102.166234 227.424836-236.755086z m-273.842828 236.755086v-185.671969c-88.17086-4.665125-176.341719-18.543871-227.424836-46.417992 13.995375 129.923727 97.501109 218.211215 227.424836 232.089961z m-218.094587-371.343938c51.083117-27.874121 134.588852-41.752867 218.094587-46.417992v-232.089961c-97.384481 18.660499-185.555341 139.253977-218.094587 278.507953z m264.512579-278.391325v232.089961c83.505735 0 167.128098 18.543871 218.094586 46.417992-27.757493-143.919101-120.593477-259.964082-218.094586-278.507953zM1054.787281-120.533258H789.80819c-13.06235 0-22.392599 9.33025-22.392599 22.392599s11.1963 22.392599 22.392599 22.3926h240.720442V136.981634c0 13.06235 11.1963 22.392599 22.3926 22.392599 13.06235 0 22.392599-9.33025 22.392599-22.392599v-235.122293c1.86605-13.06235-7.4642-22.392599-20.52655-22.392599z m-0.933024 719.828764c-13.06235 0-22.392599 9.33025-22.3926 22.392599V843.748048h-242.586492c-13.06235 0-22.392599 9.33025-22.392599 22.392599s11.1963 22.392599 22.392599 22.392599H1051.988207c13.06235 0 22.392599-9.33025 22.392599-22.392599v-244.452542c1.86605-13.06235-7.4642-22.392599-20.526549-22.392599zM270.579795 843.748048H54.118002v-222.059943c0-13.06235-11.1963-22.392599-22.392599-22.392599-13.06235 0-22.392599 9.33025-22.392599 22.392599V866.140647C9.332804 879.202996 20.529103 888.533246 31.725403 888.533246h240.720442c13.06235 0 22.392599-9.33025 22.392599-22.392599s-11.1963-22.392599-24.258649-22.392599zM29.859353 161.240283c13.06235 0 22.392599-9.33025 22.392599-22.392599v-212.729693H270.579795c13.06235 0 22.392599-9.33025 22.392599-22.3926S281.776095-118.667208 270.579795-118.667208H29.859353c-13.06235 0-22.392599 9.33025-22.392599 22.392599v233.256243c0 13.06235 9.33025 24.258649 22.392599 24.258649z m1024.927928-289.237741H789.80819a29.856799 29.856799 0 1 0 0 59.713599h233.256243v205.265493a29.856799 29.856799 0 1 0 59.713598 0v-235.122293c1.86605-16.794449-11.1963-29.856799-27.99075-29.856799z m14.9284 264.979092a14.9284 14.9284 0 1 1-29.856799 0v-220.193893H789.80819a14.9284 14.9284 0 1 1 0-29.856799h263.113042a14.718469 14.718469 0 0 1 14.928399 14.928399V136.981634z m-15.861424 454.849672a29.471926 29.471926 0 0 0-29.856799 29.856799v214.595743H788.875165a29.471926 29.471926 0 0 0-29.856799 29.856799A29.471926 29.471926 0 0 0 788.875165 895.997446H1051.988207c18.660499 0 31.722849-13.06235 31.722849-29.856799v-244.452542a29.471926 29.471926 0 0 0-29.856799-29.856799z m14.928399 274.309341a14.718469 14.718469 0 0 1-14.928399 14.928399H788.875165a14.718469 14.718469 0 0 1-14.928399-14.928399 14.718469 14.718469 0 0 1 14.928399-14.9284h248.184642v-229.524142a14.9284 14.9284 0 1 1 29.856799 0V866.140647zM270.579795 836.283848H61.582202v-214.595743a29.471926 29.471926 0 0 0-29.856799-29.856799 29.471926 29.471926 0 0 0-29.856799 29.856799V866.140647C0.002554 882.935096 13.064904 895.997446 29.859353 895.997446H270.579795a29.471926 29.471926 0 0 0 29.856799-29.856799c1.86605-16.794449-13.06235-29.856799-29.856799-29.856799z m0 44.785198H29.859353a14.718469 14.718469 0 0 1-14.928399-14.928399v-244.452542A14.718469 14.718469 0 0 1 29.859353 606.759705a14.718469 14.718469 0 0 1 14.9284 14.9284V851.212247H270.579795a14.718469 14.718469 0 0 1 14.9284 14.9284c1.86605 9.33025-5.59815 14.9284-14.9284 14.928399zM29.859353 166.838433a29.471926 29.471926 0 0 0 29.856799-29.856799v-205.265493H270.579795a29.856799 29.856799 0 1 0 0-59.713599H29.859353A29.471926 29.471926 0 0 0 0.002554-98.140659V136.981634a29.471926 29.471926 0 0 0 29.856799 29.856799zM14.930954-98.140659a14.718469 14.718469 0 0 1 14.928399-14.928399H270.579795a14.9284 14.9284 0 1 1 0 29.856799H46.653803V136.981634A14.718469 14.718469 0 0 1 31.725403 151.910033a14.718469 14.718469 0 0 1-14.928399-14.928399v-235.122293z"  horiz-adv-x="1083" />

    
    <glyph glyph-name="navicon-jkgy" unicode="&#59006;" d="M291.84 363.52c-96.768 0-179.2 69.12-196.096 164.352L50.688 785.408c-3.584 18.944 1.536 38.4 14.336 53.76s31.744 24.064 51.712 24.064h70.656c14.336 0 25.6-11.264 25.6-25.6s-11.264-25.6-25.6-25.6H116.224c-4.608 0-9.216-2.048-12.288-5.632-1.536-2.048-4.096-6.144-3.072-11.776l45.056-257.536C158.72 465.92 220.16 414.72 291.84 414.72c72.192 0 133.632 51.2 145.92 122.368l45.568 258.048c0.512 4.096-0.512 8.704-3.584 12.288-1.536 2.048-5.632 5.632-11.776 5.632H406.016c-14.336 0-25.6 11.264-25.6 25.6s11.264 25.6 25.6 25.6h61.952c19.456 0 37.888-8.704 50.688-23.552 12.8-14.848 17.92-34.816 14.848-53.76l-45.568-258.048C471.552 432.64 389.12 363.52 291.84 363.52zM291.84 388.608m-61.44 0a61.44 61.44 0 1 1 122.88 0 61.44 61.44 0 1 1-122.88 0ZM860.16-115.20000000000005c-61.44 0-111.104 49.664-111.104 111.104s49.664 111.104 111.104 111.104 111.104-49.664 111.104-111.104-49.664-111.104-111.104-111.104z m0 171.008c-33.28 0-59.904-26.624-59.904-59.904s26.624-59.904 59.904-59.904 59.904 26.624 59.904 59.904-26.624 59.904-59.904 59.904zM434.176-118.78399999999999c-92.16 0-167.424 75.264-167.424 167.424V388.608c0 14.336 11.264 25.6 25.6 25.6s25.6-11.264 25.6-25.6v-339.968c0-64 52.224-116.224 116.224-116.224s116.224 52.224 116.224 116.224v271.872c0 14.336 11.264 25.6 25.6 25.6s25.6-11.264 25.6-25.6v-271.872c0-92.16-75.264-167.424-167.424-167.424zM576 67.072c-14.336 0-25.6 11.264-25.6 25.6v209.92c0 92.16 75.264 167.424 167.424 167.424s167.424-75.264 167.424-167.424v-200.704c0-14.336-11.264-25.6-25.6-25.6s-25.6 11.264-25.6 25.6v200.704c0 64-52.224 116.224-116.224 116.224s-116.224-52.224-116.224-116.224v-209.92c0-14.336-11.264-25.6-25.6-25.6zM186.368 837.632m-49.664 0a49.664 49.664 0 1 1 99.328 0 49.664 49.664 0 1 1-99.328 0ZM402.944 837.632m-49.664 0a49.664 49.664 0 1 1 99.328 0 49.664 49.664 0 1 1-99.328 0Z"  horiz-adv-x="1024" />

    
    <glyph glyph-name="kujialeqiyezhan_yewunengli" unicode="&#58962;" d="M814.4 684.8a403.2 403.2 0 0 1-190.4-3.2 398.4 398.4 0 0 1-177.6-102.4l-6.4-6.4h-1.6l-8-8a9.6 9.6 0 0 0-11.2-3.2 134.4 134.4 0 0 1-75.2 6.4 132.8 132.8 0 0 1-65.6-35.2h-1.6a131.2 131.2 0 0 1-36.8-73.6 129.6 129.6 0 0 1 1.6-48 16 16 0 0 1 24-11.2l17.6 9.6a166.4 166.4 0 0 0 51.2 11.2h4.8l4.8-3.2a9.6 9.6 0 0 0 1.6-8 470.4 470.4 0 0 1-11.2-54.4c-1.6-16-3.2-30.4-3.2-44.8a16 16 0 0 1 4.8-11.2l97.6-107.2a14.4 14.4 0 0 1 11.2-4.8l46.4 3.2 56 11.2h3.2l6.4-3.2a9.6 9.6 0 0 0 3.2-6.4 153.6 153.6 0 0 0-11.2-52.8l-9.6-17.6a16 16 0 0 1 9.6-24l27.2-1.6h22.4a134.4 134.4 0 0 1 72 36.8h1.6a134.4 134.4 0 0 1 30.4 142.4 9.6 9.6 0 0 0 1.6 12.8l16 16a392 392 0 0 1 102.4 177.6 396.8 396.8 0 0 1 3.2 192 16 16 0 0 1-11.2 11.2z m-22.4-195.2a361.6 361.6 0 0 0-96-164.8l-14.4-12.8a41.6 41.6 0 0 1-11.2-44.8 102.4 102.4 0 0 0-22.4-108.8h-1.6a104 104 0 0 0-54.4-28.8h-14.4a185.6 185.6 0 0 1 14.4 64 41.6 41.6 0 0 1-40 43.2h-14.4l-51.2-9.6-35.2-3.2-89.6 89.6c0 11.2 1.6 24 3.2 35.2a438.4 438.4 0 0 0 11.2 51.2 41.6 41.6 0 0 1-4.8 32 40 40 0 0 1-24 16h-14.4a198.4 198.4 0 0 1-62.4-14.4 97.6 97.6 0 0 0 1.6 16 100.8 100.8 0 0 0 27.2 54.4h1.6a100.8 100.8 0 0 0 51.2 27.2 102.4 102.4 0 0 0 57.6-4.8 41.6 41.6 0 0 1 46.4 11.2l6.4 6.4 8 6.4a366.4 366.4 0 0 0 163.2 94.4 371.2 371.2 0 0 0 164.8 11.2 364.8 364.8 0 0 0-6.4-166.4zM352 224a16 16 0 0 1-22.4 0l-84.8-84.8a16 16 0 1 1 22.4-22.4l84.8 84.8a16 16 0 0 1 0 22.4zM256 196.8a16 16 0 0 1 11.2 4.8l43.2 43.2a16 16 0 0 1-22.4 22.4L244.8 224a16 16 0 0 1 11.2-27.2zM372.8 182.4l-43.2-43.2a16 16 0 1 1 22.4-22.4l43.2 43.2a16 16 0 0 1-22.4 22.4zM640 592a96 96 0 1 1 96-96 96 96 0 0 1-96 96z m0-160a64 64 0 1 0 64 64 64 64 0 0 0-64-64z"  horiz-adv-x="1024" />

    
    <glyph glyph-name="meiguo" unicode="&#58915;" d="M20.945455 751.709091h975.127272v-651.636364H20.945455zM998.4 100.072727H20.945455v651.636364h975.127272v-651.636364zM23.272727 100.072727h972.8v651.636364H23.272727v-651.636364zM20.945455 751.709091h975.127272v-55.854546H20.945455zM20.945455 646.981818h975.127272v-46.545454H20.945455zM20.945455 546.909091h975.127272v-46.545455H20.945455zM20.945455 446.836364h975.127272v-46.545455H20.945455zM20.945455 346.763636h975.127272v-46.545454H20.945455zM20.945455 246.690909h975.127272v-46.545454H20.945455zM20.945455 146.618182h975.127272v-46.545455H20.945455zM20.945455 751.709091h390.981818v-351.418182H20.945455zM90.763636 693.527273L93.090909 686.545455h6.981818l-4.654545-2.327273 2.327273-6.981818-6.981819 4.654545-4.654545-4.654545 2.327273 6.981818-6.981819 2.327273h6.981819zM155.927273 693.527273V686.545455H162.909091l-4.654546-2.327273 2.327273-6.981818-4.654545 4.654545-6.981818-4.654545 2.327272 6.981818-4.654545 2.327273h6.981818zM221.090909 693.527273l2.327273-6.981818h6.981818l-6.981818-2.327273 2.327273-6.981818-4.654546 4.654545-6.981818-4.654545 2.327273 6.981818-4.654546 2.327273h6.981818zM283.927273 693.527273l2.327272-6.981818h6.981819l-4.654546-2.327273 2.327273-6.981818-6.981818 4.654545-4.654546-4.654545 2.327273 6.981818-4.654545 2.327273h6.981818zM351.418182 693.527273l2.327273-6.981818h6.981818l-6.981818-2.327273 2.327272-6.981818-4.654545 4.654545-6.981818-4.654545 2.327272 6.981818-4.654545 2.327273h6.981818zM58.181818 728.436364l2.327273-6.981819h6.981818l-6.981818-4.654545 2.327273-6.981818-4.654546 4.654545-4.654545-4.654545v6.981818l-4.654546 4.654545h6.981818zM123.345455 728.436364l2.327272-6.981819h4.654546l-4.654546-4.654545 2.327273-6.981818-4.654545 4.654545L116.363636 709.818182l2.327273 6.981818-4.654545 4.654545h6.981818zM188.509091 728.436364l2.327273-6.981819h6.981818l-6.981818-4.654545 2.327272-6.981818-4.654545 4.654545-6.981818-4.654545 2.327272 6.981818-4.654545 4.654545H186.181818zM253.672727 728.436364v-6.981819h6.981818l-4.654545-4.654545 2.327273-6.981818-4.654546 4.654545-6.981818-4.654545 2.327273 6.981818-4.654546 4.654545h6.981819zM318.836364 728.436364l2.327272-6.981819h6.981819l-6.981819-4.654545 2.327273-6.981818-4.654545 4.654545-4.654546-4.654545v6.981818l-4.654545 4.654545h6.981818zM384 728.436364l2.327273-6.981819h4.654545l-4.654545-4.654545 2.327272-6.981818-4.654545 4.654545-6.981818-4.654545 2.327273 6.981818-4.654546 4.654545h6.981818zM90.763636 621.381818l2.327273-4.654545h6.981818l-4.654545-4.654546 2.327273-6.981818-6.981819 4.654546-4.654545-4.654546 2.327273 6.981818-6.981819 4.654546h6.981819zM155.927273 621.381818v-4.654545H162.909091l-4.654546-4.654546 2.327273-6.981818-4.654545 4.654546-6.981818-4.654546 2.327272 6.981818-4.654545 4.654546h6.981818zM221.090909 621.381818l2.327273-4.654545h6.981818l-6.981818-4.654546 2.327273-6.981818-4.654546 4.654546-6.981818-4.654546 2.327273 6.981818-4.654546 4.654546h6.981818zM283.927273 621.381818l2.327272-4.654545h6.981819l-4.654546-4.654546 2.327273-6.981818-6.981818 4.654546-4.654546-4.654546 2.327273 6.981818-4.654545 4.654546h6.981818zM351.418182 621.381818l2.327273-4.654545h6.981818l-6.981818-4.654546 2.327272-6.981818-4.654545 4.654546-6.981818-4.654546 2.327272 6.981818-4.654545 4.654546h6.981818zM58.181818 656.290909l2.327273-6.981818h6.981818l-6.981818-4.654546 2.327273-6.981818-4.654546 4.654546-4.654545-4.654546v6.981818l-4.654546 4.654546h6.981818zM123.345455 656.290909l2.327272-6.981818h4.654546l-4.654546-4.654546 2.327273-6.981818-4.654545 4.654546-6.981819-4.654546 2.327273 6.981818-4.654545 4.654546h6.981818zM188.509091 656.290909l2.327273-6.981818h6.981818l-6.981818-4.654546 2.327272-6.981818-4.654545 4.654546-6.981818-4.654546 2.327272 6.981818-4.654545 4.654546H186.181818zM253.672727 656.290909v-6.981818h6.981818l-4.654545-4.654546 2.327273-6.981818-4.654546 4.654546-6.981818-4.654546 2.327273 6.981818-4.654546 4.654546h6.981819zM318.836364 656.290909l2.327272-6.981818h6.981819l-6.981819-4.654546 2.327273-6.981818-4.654545 4.654546-4.654546-4.654546v6.981818l-4.654545 4.654546h6.981818zM384 656.290909l2.327273-6.981818h4.654545l-4.654545-4.654546 2.327272-6.981818-4.654545 4.654546-6.981818-4.654546 2.327273 6.981818-4.654546 4.654546h6.981818zM90.763636 549.236364l2.327273-6.981819h6.981818l-4.654545-4.654545 2.327273-6.981818-6.981819 4.654545-4.654545-4.654545 2.327273 6.981818-6.981819 4.654545h6.981819zM155.927273 549.236364v-6.981819H162.909091l-4.654546-4.654545 2.327273-6.981818-4.654545 4.654545-6.981818-4.654545 2.327272 6.981818-4.654545 4.654545h6.981818zM221.090909 549.236364l2.327273-6.981819h6.981818l-6.981818-4.654545 2.327273-6.981818-4.654546 4.654545-6.981818-4.654545 2.327273 6.981818-4.654546 4.654545h6.981818zM283.927273 549.236364l2.327272-6.981819h6.981819l-4.654546-4.654545 2.327273-6.981818-6.981818 4.654545-4.654546-4.654545 2.327273 6.981818-4.654545 4.654545h6.981818zM351.418182 549.236364l2.327273-6.981819h6.981818l-6.981818-4.654545 2.327272-6.981818-4.654545 4.654545-6.981818-4.654545 2.327272 6.981818-4.654545 4.654545h6.981818zM58.181818 581.818182l2.327273-6.981818h6.981818l-6.981818-2.327273 2.327273-6.981818-4.654546 2.327272-4.654545-2.327272v6.981818l-4.654546 2.327273h6.981818zM123.345455 581.818182l2.327272-6.981818h4.654546l-4.654546-2.327273 2.327273-6.981818-4.654545 2.327272-6.981819-2.327272 2.327273 6.981818-4.654545 2.327273h6.981818zM188.509091 581.818182l2.327273-6.981818h6.981818l-6.981818-2.327273 2.327272-6.981818-4.654545 2.327272-6.981818-2.327272 2.327272 6.981818-4.654545 2.327273H186.181818zM253.672727 581.818182v-6.981818h6.981818l-4.654545-2.327273 2.327273-6.981818-4.654546 2.327272-6.981818-2.327272 2.327273 6.981818-4.654546 2.327273h6.981819zM318.836364 581.818182l2.327272-6.981818h6.981819l-6.981819-2.327273 2.327273-6.981818-4.654545 2.327272-4.654546-2.327272v6.981818l-4.654545 2.327273h6.981818zM384 581.818182l2.327273-6.981818h4.654545l-4.654545-2.327273 2.327272-6.981818-4.654545 2.327272-6.981818-2.327272 2.327273 6.981818-4.654546 2.327273h6.981818zM90.763636 474.763636l2.327273-6.981818h6.981818l-4.654545-4.654545 2.327273-4.654546-6.981819 2.327273-4.654545-2.327273 2.327273 4.654546-6.981819 4.654545h6.981819zM155.927273 474.763636v-6.981818H162.909091l-4.654546-4.654545 2.327273-4.654546-4.654545 2.327273-6.981818-2.327273 2.327272 4.654546-4.654545 4.654545h6.981818zM221.090909 474.763636l2.327273-6.981818h6.981818l-6.981818-4.654545 2.327273-4.654546-4.654546 2.327273-6.981818-2.327273 2.327273 4.654546-4.654546 4.654545h6.981818zM283.927273 474.763636l2.327272-6.981818h6.981819l-4.654546-4.654545 2.327273-4.654546-6.981818 2.327273-4.654546-2.327273 2.327273 4.654546-4.654545 4.654545h6.981818zM351.418182 474.763636l2.327273-6.981818h6.981818l-6.981818-4.654545 2.327272-4.654546-4.654545 2.327273-6.981818-2.327273 2.327272 4.654546-4.654545 4.654545h6.981818zM58.181818 507.345455l2.327273-4.654546h6.981818l-6.981818-4.654545 2.327273-6.981819-4.654546 4.654546-4.654545-4.654546v6.981819l-4.654546 4.654545h6.981818zM123.345455 507.345455l2.327272-4.654546h4.654546l-4.654546-4.654545 2.327273-6.981819-4.654545 4.654546-6.981819-4.654546 2.327273 6.981819-4.654545 4.654545h6.981818zM188.509091 507.345455l2.327273-4.654546h6.981818l-6.981818-4.654545 2.327272-6.981819-4.654545 4.654546-6.981818-4.654546 2.327272 6.981819-4.654545 4.654545H186.181818zM253.672727 507.345455v-4.654546h6.981818l-4.654545-4.654545 2.327273-6.981819-4.654546 4.654546-6.981818-4.654546 2.327273 6.981819-4.654546 4.654545h6.981819zM318.836364 507.345455l2.327272-4.654546h6.981819l-6.981819-4.654545 2.327273-6.981819-4.654545 4.654546-4.654546-4.654546v6.981819l-4.654545 4.654545h6.981818zM384 507.345455l2.327273-4.654546h4.654545l-4.654545-4.654545 2.327272-6.981819-4.654545 4.654546-6.981818-4.654546 2.327273 6.981819-4.654546 4.654545h6.981818zM58.181818 439.854545l2.327273-6.981818h6.981818l-6.981818-4.654545 2.327273-6.981818-4.654546 4.654545-4.654545-4.654545v6.981818l-4.654546 4.654545h6.981818zM123.345455 439.854545l2.327272-6.981818h4.654546l-4.654546-4.654545 2.327273-6.981818-4.654545 4.654545-6.981819-4.654545 2.327273 6.981818-4.654545 4.654545h6.981818zM188.509091 439.854545l2.327273-6.981818h6.981818l-6.981818-4.654545 2.327272-6.981818-4.654545 4.654545-6.981818-4.654545 2.327272 6.981818-4.654545 4.654545H186.181818zM253.672727 439.854545v-6.981818h6.981818l-4.654545-4.654545 2.327273-6.981818-4.654546 4.654545-6.981818-4.654545 2.327273 6.981818-4.654546 4.654545h6.981819zM318.836364 439.854545l2.327272-6.981818h6.981819l-6.981819-4.654545 2.327273-6.981818-4.654545 4.654545-4.654546-4.654545v6.981818l-4.654545 4.654545h6.981818zM384 439.854545l2.327273-6.981818h4.654545l-4.654545-4.654545 2.327272-6.981818-4.654545 4.654545-6.981818-4.654545 2.327273 6.981818-4.654546 4.654545h6.981818z"  horiz-adv-x="1024" />

    
    <glyph glyph-name="gengduo_" unicode="&#58886;" d="M930.84884 434.655238L476.426123 885.445478a36.324758 36.324758 0 0 1-51.217908-51.581155l454.422717-450.790241L414.310788-64.083683a36.324758 36.324758 0 1 1 51.217908-51.217908l465.320144 447.157765a72.649515 72.649515 0 0 1 0 102.799064zM599.567051 434.655238L144.781087 885.445478A36.324758 36.324758 0 0 1 93.563179 833.864323L547.985896 383.074082 82.665752-64.083683a36.324758 36.324758 0 1 1 51.217908-51.217908l465.683391 447.157765a72.649515 72.649515 0 0 1 0 102.799064z"  horiz-adv-x="1024" />

    
    <glyph glyph-name="jianhao" unicode="&#58923;" d="M98 415.14h829.99v-63.79H98z"  horiz-adv-x="1024" />

    
    <glyph glyph-name="jiahao1" unicode="&#58927;" d="M98 415.14h829.99v-63.79H98zM481.48 797.85h63.79V-31h-63.79z"  horiz-adv-x="1024" />

    
    <glyph glyph-name="wenhuajiaoyu" unicode="&#58901;" d="M832-128h-640c-70.656 0-128 57.344-128 128V768c0 70.656 57.344 128 128 128h640c70.656 0 128-57.344 128-128v-768c0-70.656-57.344-128-128-128zM192 832C156.672 832 128 803.328 128 768v-768c0-35.328 28.672-64 64-64h640c35.328 0 64 28.672 64 64V768c0 35.328-28.672 64-64 64h-640zM256-96.256c-17.92 0-32.256 14.336-32.256 32.256v896c0 17.92 14.336 31.744 32.256 31.744s32.256-14.336 32.256-31.744v-896c-0.512-17.92-14.336-32.256-32.256-32.256zM544.256 512c-10.24 0-20.48 2.56-30.208 7.68-20.992 11.264-33.792 32.768-33.792 56.32v256c0 17.92 14.336 31.744 32.256 31.744s32.256-14.336 32.256-31.744v-256l78.336 52.224c10.752 7.168 24.576 7.168 35.328 0l78.336-52.224v256c0 17.92 14.336 31.744 32.256 31.744s32.256-14.336 32.256-31.744v-256c0-35.328-28.672-64-64-64-12.8 0-25.088 3.584-35.328 10.752L640 563.2l-60.416-40.448c-10.752-7.168-23.04-10.752-35.328-10.752zM768 64h-256c-17.92 0-32.256 14.336-32.256 32.256s14.336 32.256 32.256 32.256h256c17.92 0 32.256-14.336 32.256-32.256s-14.336-32.256-32.256-32.256z"  horiz-adv-x="1024" />

    
    <glyph glyph-name="gongzuobao" unicode="&#58914;" d="M812 0h-600A100.144 100.144 0 0 0 112 100.256v451.2a100.128 100.128 0 0 0 100 100.272h150v50.128A50.064 50.064 0 0 0 412 752h200a50.064 50.064 0 0 0 50-50.128v-50.128h150A100.128 100.128 0 0 0 912 551.456v-451.2A100.144 100.144 0 0 0 812 0z m-200 676.8a25.04 25.04 0 0 1-24.992 25.072h-150A25.04 25.04 0 0 1 412 676.8v-25.072h200V676.8z m250-125.328A50.064 50.064 0 0 1 812 601.6h-600a50.064 50.064 0 0 1-50-50.128v-125.328h700v125.312z m-400-200.528a50 50 0 1 1 93.072 25.056h-86.128a49.712 49.712 0 0 1-6.944-25.072z m400 25.072H608.464a100 100 0 1 0-192.928 0H162v-275.76a50.064 50.064 0 0 1 50-50.128h600a50.064 50.064 0 0 1 50 50.128V376z"  horiz-adv-x="1024" />

    
    </font>
</defs>
</svg>
